<svg version="1" xmlns="http://www.w3.org/2000/svg" width="933.333" height="933.333" viewBox="0 0 700.000000 700.000000"><path d="M17 350v333h666V17H17v333zM447 86.5V100h-31v138h154V100h-31V73l40.3.2 40.2.3.3 13.2.3 13.3H594v318h26v26h-81v-26h31V265H416v153h31v26h-80v-26h26V265H280v124.9c0 108.2-.2 126-1.5 133.7-7.9 44.8-41.6 83.2-82 93.5-11.2 2.8-31.9 3.1-43 .6-17.1-3.8-37.7-13.9-54.3-26.3-9.1-6.8-25.4-22.3-24.9-23.7.1-.5 3.8-5.1 8.2-10.3l7.9-9.4 8.6 8.3c19.1 18.5 34.8 28.3 55 34.2 8.8 2.6 29.6 2.7 39 .2 8.6-2.3 21.6-8.6 28.3-13.6 13.2-10 27.6-33.2 32.9-53.2l2.2-8.4.3-125.3.4-125.2H166v-27h227V100h-26V74l32.3-.3c17.7-.1 35.7-.3 40-.5l7.7-.2v13.5z"/></svg>