<?xml version="1.0" encoding="UTF-8" standalone="no"?>
<svg
   width="702px"
   height="134px"
   viewBox="0 0 702 134"
   version="1.1"
   id="svg10"
   sodipodi:docname="alpine_long.svg"
   inkscape:version="1.1 (c68e22c387, 2021-05-23)"
   xmlns:inkscape="http://www.inkscape.org/namespaces/inkscape"
   xmlns:sodipodi="http://sodipodi.sourceforge.net/DTD/sodipodi-0.dtd"
   xmlns="http://www.w3.org/2000/svg"
   xmlns:svg="http://www.w3.org/2000/svg"
   xmlns:rdf="http://www.w3.org/1999/02/22-rdf-syntax-ns#"
   xmlns:cc="http://creativecommons.org/ns#"
   xmlns:dc="http://purl.org/dc/elements/1.1/">
  <defs
     id="defs14" />
  <sodipodi:namedview
     id="namedview12"
     pagecolor="#ffffff"
     bordercolor="#666666"
     borderopacity="1.0"
     inkscape:pageshadow="2"
     inkscape:pageopacity="0.0"
     inkscape:pagecheckerboard="0"
     showgrid="false"
     inkscape:zoom="1.5071225"
     inkscape:cx="351.33176"
     inkscape:cy="66.683365"
     inkscape:window-width="1920"
     inkscape:window-height="1017"
     inkscape:window-x="1912"
     inkscape:window-y="-8"
     inkscape:window-maximized="1"
     inkscape:current-layer="svg10" />
  <title
     id="title2">Custom Preset 4 Copy 5</title>
  <g
     id="g1819">
    <path
       d="m 236.145,101 4.015,-12.98 h 25.465 L 269.64,101 h 18.535 L 264.69,27.19 H 242.305 L 217.445,101 Z M 261.61,74.985 H 244.615 L 253.25,47.98 Z M 317.05,101 V 25.1 h -17.6 V 101 Z m 36.3,26.29 -0.001,-28.571 0.055,0.0502 c 0.55246,0.5104 1.14347,0.968 1.77302,1.3728 l 0.31799,0.198 c 2.67667,1.61333 6.01333,2.42 10.01,2.42 4.58333,0 8.8825,-1.13667 12.8975,-3.41 4.015,-2.273333 7.26,-5.555 9.735,-9.845 2.475,-4.29 3.7125,-9.478333 3.7125,-15.565 0,-6.123333 -1.21917,-11.33 -3.6575,-15.62 -2.43833,-4.29 -5.60083,-7.571667 -9.4875,-9.845 -3.88667,-2.273333 -7.99333,-3.41 -12.32,-3.41 -3.26333,0 -6.34333,0.834167 -9.24,2.5025 -2.0856,1.2012 -3.88133,2.929872 -5.38718,5.186016 L 351.541,53.086 350.105,46.825 H 335.75 V 127.29 Z M 362.7,86.7 c -1.68667,0 -3.245,-0.311667 -4.675,-0.935 -1.43,-0.623333 -2.56667,-1.485 -3.41,-2.585 -0.84333,-1.1 -1.265,-2.383333 -1.265,-3.85 h -0.001 v -8.91 l 0.007,-0.378033 c 0.0477,-1.623845 0.40517,-3.061789 1.0725,-4.313834 L 354.588,65.4425 c 0.825,-1.411667 1.97083,-2.5025 3.4375,-3.2725 1.46667,-0.77 3.135,-1.155 5.005,-1.155 2.31,0 4.29917,0.531667 5.9675,1.595 1.66833,1.063333 2.96083,2.566667 3.8775,4.51 0.91667,1.943333 1.375,4.216667 1.375,6.82 0,3.08 -0.61417,5.555 -1.8425,7.425 -1.22833,1.87 -2.73167,3.226667 -4.51,4.07 -1.77833,0.843333 -3.51083,1.265 -5.1975,1.265 z m 53.625,-46.86 c 3.22667,0 5.775,-0.8525 7.645,-2.5575 1.87,-1.705 2.805,-4.115833 2.805,-7.2325 0,-3.043333 -0.935,-5.4725 -2.805,-7.2875 -1.87,-1.815 -4.41833,-2.7225 -7.645,-2.7225 -3.33667,0 -5.9125,0.9075 -7.7275,2.7225 -1.815,1.815 -2.7225,4.244167 -2.7225,7.2875 0,3.116667 0.9075,5.5275 2.7225,7.2325 1.815,1.705 4.39083,2.5575 7.7275,2.5575 z m 8.8,61.16 V 46.495 h -17.6 V 101 Z m 37.84,0 V 78.175 l 0.003,-0.559943 c 0.0417,-3.699243 0.5,-6.724243 1.375,-9.075 l 0.1345,-0.347557 c 1.00833,-2.511667 2.35583,-4.335833 4.0425,-5.4725 1.68667,-1.136667 3.53833,-1.705 5.555,-1.705 1.98,0 3.66667,0.6875 5.06,2.0625 1.39333,1.375 2.09,3.4925 2.09,6.3525 v 0 31.57 h 17.71 V 69.43 c 0,-4.73 -0.69667,-8.928333 -2.09,-12.595 -1.39333,-3.666667 -3.56583,-6.545 -6.5175,-8.635 -2.95167,-2.09 -6.75583,-3.135 -11.4125,-3.135 -4.07,0 -7.70917,1.136667 -10.9175,3.41 -1.99138,1.411034 -3.72143,3.323543 -5.19014,5.737527 L 462.656,54.466 460.875,46.825 h -15.51 V 101 Z m 74.855,1.76 c 4.47333,0 8.42417,-0.80667 11.8525,-2.42 3.42833,-1.613333 6.215,-3.795 8.36,-6.545 2.145,-2.75 3.4925,-5.811667 4.0425,-9.185 v 0 h -17.49 c -0.47667,1.43 -1.32,2.475 -2.53,3.135 -1.21,0.66 -2.62167,0.99 -4.235,0.99 -1.98,0 -3.62083,-0.4675 -4.9225,-1.4025 -1.30167,-0.935 -2.2825,-2.245833 -2.9425,-3.9325 -0.66,-1.686667 -0.99,-3.685 -0.99,-5.995 l 10e-4,0.11 h 32.559 c 0.86842,-3.890526 1.03754,-7.6741 0.50734,-11.35072 l -0.0948,-0.61178 c -0.64167,-3.868333 -1.99833,-7.3425 -4.07,-10.4225 -2.07167,-3.08 -4.79417,-5.5275 -8.1675,-7.3425 -3.37333,-1.815 -7.33333,-2.7225 -11.88,-2.7225 -4.58333,0 -8.87333,1.136667 -12.87,3.41 -3.99667,2.273333 -7.22333,5.545833 -9.68,9.8175 -2.45667,4.271667 -3.685,9.395833 -3.685,15.3725 0,5.976667 1.2375,11.146667 3.7125,15.51 2.475,4.363333 5.71083,7.718333 9.7075,10.065 3.99667,2.34667 8.26833,3.52 12.815,3.52 z m 8.359,-34.155 h -17.135 l 10e-4,-0.01516 c 0.13363,-1.504148 0.43429,-2.841259 0.902,-4.011333 l 0.1455,-0.346007 c 0.75167,-1.705 1.815,-3.006667 3.19,-3.905 1.375,-0.898333 2.9975,-1.3475 4.8675,-1.3475 1.68667,0 3.07083,0.339167 4.1525,1.0175 1.08167,0.678333 1.91583,1.576667 2.5025,2.695 0.58667,1.118333 0.98083,2.3375 1.1825,3.6575 0.10083,0.66 0.16271,1.315417 0.18563,1.96625 z m 34.596,33.385 c 3.48333,0 6.36167,-1.05417 8.635,-3.1625 2.27333,-2.108333 3.41,-4.794167 3.41,-8.0575 0,-3.263333 -1.13667,-5.976667 -3.41,-8.14 -2.27333,-2.163333 -5.15167,-3.245 -8.635,-3.245 -3.48333,0 -6.31583,1.081667 -8.4975,3.245 -2.18167,2.163333 -3.2725,4.876667 -3.2725,8.14 0,3.226667 1.09083,5.903333 3.2725,8.03 2.18167,2.12667 5.01417,3.19 8.4975,3.19 z M 614.38,39.84 c 3.22667,0 5.775,-0.8525 7.645,-2.5575 1.87,-1.705 2.805,-4.115833 2.805,-7.2325 0,-3.043333 -0.935,-5.4725 -2.805,-7.2875 -1.87,-1.815 -4.41833,-2.7225 -7.645,-2.7225 -3.22667,0 -5.79333,0.9075 -7.7,2.7225 -1.90667,1.815 -2.86,4.244167 -2.86,7.2875 0,3.116667 0.95333,5.5275 2.86,7.2325 1.90667,1.705 4.47333,2.5575 7.7,2.5575 z m -10.505,89.375 c 6.41667,0 11.275,-1.75083 14.575,-5.2525 3.3,-3.50167 4.95,-9.41417 4.95,-17.7375 v 0 -59.62 h -17.71 v 59.29 c 0,3.15333 -0.55917,5.26167 -1.6775,6.325 -1.11833,1.06333 -2.81417,1.595 -5.0875,1.595 -1.76,0 -3.66667,-0.25667 -5.72,-0.77 -2.05333,-0.51333 -3.86833,-1.08167 -5.445,-1.705 v 0 15.125 c 2.53,0.69667 5.04167,1.32917 7.535,1.8975 2.49333,0.56833 5.35333,0.8525 8.58,0.8525 z M 664.54,102.76 c 4.54667,0 8.61667,-0.84333 12.21,-2.53 3.59333,-1.686667 6.42583,-3.8775 8.4975,-6.5725 2.07167,-2.695 3.1075,-5.545833 3.1075,-8.5525 0,-3.3 -1.06333,-6.05 -3.19,-8.25 -2.12667,-2.2 -5.04167,-4.033333 -8.745,-5.5 v 0 L 661.46,65.36 c -2.31,-0.806667 -3.465,-1.906667 -3.465,-3.3 0,-1.026667 0.55,-1.851667 1.65,-2.475 1.1,-0.623333 2.60333,-0.935 4.51,-0.935 2.31,0 3.96,0.430833 4.95,1.2925 0.99,0.861667 1.485,1.879167 1.485,3.0525 v 0 h 16.115 c -0.0367,-5.206667 -1.99833,-9.496667 -5.885,-12.87 -3.88667,-3.373333 -9.44167,-5.06 -16.665,-5.06 -7.7,0 -13.76833,1.485 -18.205,4.455 -4.43667,2.97 -6.655,6.856667 -6.655,11.66 0,3.41 1.05417,6.3525 3.1625,8.8275 2.10833,2.475 5.10583,4.519167 8.9925,6.1325 v 0 l 13.145,5.115 c 1.39333,0.55 2.42,1.1 3.08,1.65 0.66,0.55 0.99,1.283333 0.99,2.2 0,0.696667 -0.23833,1.3475 -0.715,1.9525 -0.47667,0.605 -1.19167,1.090833 -2.145,1.4575 -0.95333,0.366667 -2.16333,0.55 -3.63,0.55 -2.42,0 -4.33583,-0.366667 -5.7475,-1.1 -1.41167,-0.733333 -2.15417,-2.053333 -2.2275,-3.96 v 0 h -15.895 c -0.0367,4.216667 1.05417,7.709167 3.2725,10.4775 2.21833,2.768333 5.3075,4.84 9.2675,6.215 3.96,1.375 8.525,2.0625 13.695,2.0625 z"
       id="Alpine.js"
       fill="#2d3441"
       fill-rule="nonzero"
       style="stroke:none;stroke-width:1;fill:#d2d7e0;fill-opacity:1" />
    <g
       id="g1813">
      <polygon
         id="Path"
         fill="#77c1d2"
         points="149.52038,10.302777 189.39248,50 149.52038,89.697223 109.64828,50 "
         transform="translate(0,12)"
         style="fill-rule:evenodd;stroke:none;stroke-width:1" />
      <polygon
         id="polygon6"
         fill="#2d3441"
         points="49.840125,10.302777 132.49997,92.600082 52.755773,92.600082 9.9680251,50 "
         transform="translate(0,12)"
         style="fill-rule:evenodd;stroke:none;stroke-width:1;fill:#d3d7e0;fill-opacity:1" />
    </g>
  </g>
  <metadata
     id="metadata831">
    <rdf:RDF>
      <cc:Work
         rdf:about="">
        <dc:title>Custom Preset 4 Copy 5</dc:title>
      </cc:Work>
    </rdf:RDF>
  </metadata>
</svg>
