<svg xmlns="http://www.w3.org/2000/svg" height="480" width="340.067"><path d="M30.947 441.447L0 94.33h340.064l-30.98 347.062L169.823 480 30.947 441.447" fill="#376fbb"/><path d="M170.032 450.49l112.528-31.197 26.475-296.58H170.032v327.778" fill="#61a3de"/><path d="M59.532 202.833l-4.167-40.166H284.7l-2.667 46.5-97 42.833h93l-10 132-93.733 25.167-97.267-23.583-6-66.917h43L116.365 354l56.334 10.5 52-15.916L227.032 292H67.365l-3-42 105.667-46.333-110.5-.834" fill="#ededed"/><path d="M64.365 250l3 42h102.667v-88.333L64.365 250M116.365 354l-2.333-35.333h-43l6 66.917 93 22.548v-44.13L116.365 354M55.365 162.667l4.167 40.166 110.5.834v-41H55.365" fill="#cfcecd"/><path d="M202.032 16V0h-64v37.333h44v12h-45.333V64h64V25.333h-45.334V16h46.667M86.032 37.697v11.636h45.333V64h-64V0h62.667v16h-44v21.697M272.699 16V0h-64v37.333h44v12h-45.334V64h64V25.333h-45.333V16h46.667" fill="#100f0d"/></svg>