<?xml version="1.0" encoding="UTF-8" standalone="no" ?>
<!DOCTYPE svg PUBLIC "-//W3C//DTD SVG 1.1//EN" "http://www.w3.org/Graphics/SVG/1.1/DTD/svg11.dtd">
<svg xmlns="http://www.w3.org/2000/svg" xmlns:xlink="http://www.w3.org/1999/xlink" version="1.1" width="1080" height="1080" viewBox="0 0 1080 1080" xml:space="preserve">
<desc>Created with Fabric.js 4.2.0</desc>
<defs>
</defs>
<g transform="matrix(1 0 0 1 540 540)" id="0d20202d-13ae-49a9-9246-fba94f02ea4d"  >
<rect style="stroke: none; stroke-width: 1; stroke-dasharray: none; stroke-linecap: butt; stroke-dashoffset: 0; stroke-linejoin: miter; stroke-miterlimit: 4; fill: rgb(255,255,255); fill-opacity: 0; fill-rule: nonzero; opacity: 1;" vector-effect="non-scaling-stroke"  x="-540" y="-540" rx="0" ry="0" width="1080" height="1080" />
</g>
<g transform="matrix(Infinity NaN NaN Infinity 0 0)" id="75c9a3c3-5d76-4f85-9548-ff31fa749ac7"  >
</g>
<g transform="matrix(1.77 0 0 1.77 542.29 538.23)"  >
<g style="" vector-effect="non-scaling-stroke"   >
		<g transform="matrix(1.27 0 0 1.27 0 59.74)"  >
<path style="stroke: none; stroke-width: 1; stroke-dasharray: none; stroke-linecap: butt; stroke-dashoffset: 0; stroke-linejoin: miter; stroke-miterlimit: 4; fill: rgb(55,111,187); fill-rule: nonzero; opacity: 1;" vector-effect="non-scaling-stroke"  transform=" translate(-170.03, -287.17)" d="M 30.947 441.447 L 0 94.33 L 340.064 94.33 L 309.084 441.392 L 169.823 480 L 30.947 441.447" stroke-linecap="round" />
</g>
		<g transform="matrix(1.27 0 0 1.27 87.7 58.93)"  >
<path style="stroke: none; stroke-width: 1; stroke-dasharray: none; stroke-linecap: butt; stroke-dashoffset: 0; stroke-linejoin: miter; stroke-miterlimit: 4; fill: rgb(97,163,222); fill-rule: nonzero; opacity: 1;" vector-effect="non-scaling-stroke"  transform=" translate(-239.53, -286.6)" d="M 170.032 450.49 L 282.56 419.293 L 309.035 122.71300000000002 L 170.032 122.71300000000002 L 170.032 450.49100000000004" stroke-linecap="round" />
</g>
		<g transform="matrix(1.27 0 0 1.27 -0.18 57.93)"  >
<path style="stroke: none; stroke-width: 1; stroke-dasharray: none; stroke-linecap: butt; stroke-dashoffset: 0; stroke-linejoin: miter; stroke-miterlimit: 4; fill: rgb(237,237,237); fill-rule: nonzero; opacity: 1;" vector-effect="non-scaling-stroke"  transform=" translate(-170.03, -285.92)" d="M 59.532 202.833 L 55.364999999999995 162.667 L 284.7 162.667 L 282.033 209.167 L 185.03300000000002 252 L 278.033 252 L 268.033 384 L 174.3 409.16700000000003 L 77.03300000000002 385.58400000000006 L 71.03300000000002 318.66700000000003 L 114.03300000000002 318.66700000000003 L 116.365 354 L 172.699 364.5 L 224.699 348.584 L 227.032 292 L 67.365 292 L 64.365 250 L 170.03199999999998 203.667 L 59.53199999999998 202.833" stroke-linecap="round" />
</g>
		<g transform="matrix(1.27 0 0 1.27 -73 57.27)"  >
<path style="stroke: none; stroke-width: 1; stroke-dasharray: none; stroke-linecap: butt; stroke-dashoffset: 0; stroke-linejoin: miter; stroke-miterlimit: 4; fill: rgb(207,206,205); fill-rule: nonzero; opacity: 1;" vector-effect="non-scaling-stroke"  transform=" translate(-112.7, -285.4)" d="M 64.365 250 L 67.365 292 L 170.03199999999998 292 L 170.03199999999998 203.667 L 64.365 250 M 116.365 354 L 114.032 318.66700000000003 L 71.032 318.66700000000003 L 77.032 385.58400000000006 L 170.03199999999998 408.13200000000006 L 170.03199999999998 364.00200000000007 L 116.365 354 M 55.365 162.667 L 59.532000000000004 202.833 L 170.032 203.667 L 170.032 162.667 L 55.365 162.667" stroke-linecap="round" />
</g>
		<g transform="matrix(1.27 0 0 1.27 -0.22 -264)"  >
<path style="stroke: none; stroke-width: 1; stroke-dasharray: none; stroke-linecap: butt; stroke-dashoffset: 0; stroke-linejoin: miter; stroke-miterlimit: 4; fill: rgb(255,255,255); fill-rule: nonzero; opacity: 1;" vector-effect="non-scaling-stroke"  transform=" translate(-170.03, -32)" d="M 202.032 16 L 202.032 0 L 138.032 0 L 138.032 37.333 L 182.032 37.333 L 182.032 49.333 L 136.699 49.333 L 136.699 64 L 200.699 64 L 200.699 25.333 L 155.365 25.333 L 155.365 16 L 202.032 16 M 86.032 37.697 L 86.032 49.333 L 131.365 49.333 L 131.365 64 L 67.36500000000001 64 L 67.36500000000001 0 L 130.032 0 L 130.032 16 L 86.03200000000001 16 L 86.03200000000001 37.697 M 272.699 16 L 272.699 0 L 208.699 0 L 208.699 37.333 L 252.699 37.333 L 252.699 49.333 L 207.365 49.333 L 207.365 64 L 271.365 64 L 271.365 25.333 L 226.032 25.333 L 226.032 16 L 272.699 16" stroke-linecap="round" />
</g>
</g>
</g>
</svg>