<svg xmlns="http://www.w3.org/2000/svg" height="121.613" width="291.16"><g fill="#fff"><path d="M174.497 41.393c-6.384 0-11.138 3.135-11.138 10.68 0 5.684 3.133 9.63 10.794 9.63 6.494 0 10.904-3.827 10.904-9.866 0-6.843-3.946-10.444-10.56-10.444zm-12.764 53.27c-1.51 1.853-3.016 3.823-3.016 6.148 0 4.638 5.915 6.034 14.04 6.034 6.731 0 15.899-.471 15.899-6.729 0-3.72-4.41-3.95-9.984-4.3zm34.348-52.92c2.086 2.67 4.294 6.384 4.294 11.722 0 12.88-10.096 20.422-24.714 20.422-3.717 0-7.082-.463-9.169-1.042l-3.83 6.149 11.37.694c20.077 1.28 31.91 1.86 31.91 17.288 0 13.348-11.718 20.887-31.91 20.887-21.003 0-29.01-5.338-29.01-14.504 0-5.224 2.322-8.002 6.383-11.837-3.83-1.62-5.105-4.52-5.105-7.653 0-2.555 1.275-4.875 3.367-7.082 2.088-2.202 4.408-4.41 7.193-6.962-5.685-2.785-9.98-8.819-9.98-17.408 0-13.343 8.82-22.507 26.57-22.507 4.991 0 8.01.46 10.68 1.16h22.629v9.861l-10.678.813M227.173 20.658c-6.616 0-10.444-3.833-10.444-10.45C216.73 3.6 220.557 0 227.173 0c6.731 0 10.56 3.6 10.56 10.208 0 6.617-3.829 10.45-10.56 10.45zm-14.972 69.735V81.23l5.92-.81c1.626-.235 1.856-.58 1.856-2.325V43.979c0-1.274-.346-2.09-1.51-2.435l-6.266-2.207 1.276-9.396H237.5v48.154c0 1.86.112 2.09 1.857 2.325l5.919.81v9.163h-33.075M291.164 85.894c-4.992 2.434-12.301 4.64-18.919 4.64-13.808 0-19.028-5.565-19.028-18.684v-30.4c0-.695 0-1.161-.932-1.161h-8.121V29.962c10.215-1.164 14.273-6.27 15.55-18.918h11.025v16.483c0 .81 0 1.16.929 1.16h16.36v11.602h-17.29V68.02c0 6.847 1.627 9.514 7.89 9.514 3.253 0 6.615-.81 9.4-1.856l3.136 10.215M119.229 55.442L66.17 2.387c-3.053-3.055-8.009-3.055-11.066 0L44.087 13.405l13.976 13.977c3.248-1.097 6.972-.362 9.561 2.227a9.302 9.302 0 012.208 9.621l13.47 13.47c3.258-1.124 7.018-.398 9.62 2.209a9.308 9.308 0 010 13.168 9.31 9.31 0 01-13.171 0 9.316 9.316 0 01-2.027-10.127L65.162 45.387l-.001 33.058a9.392 9.392 0 012.463 1.76c3.637 3.637 3.637 9.53 0 13.171-3.638 3.637-9.534 3.637-13.168 0-3.638-3.642-3.638-9.534 0-13.17a9.317 9.317 0 013.049-2.032V44.81a9.212 9.212 0 01-3.05-2.032c-2.754-2.753-3.418-6.797-2.005-10.18l-13.777-13.78-36.38 36.379a7.828 7.828 0 000 11.07l53.058 53.055a7.827 7.827 0 0011.068 0l52.81-52.81a7.83 7.83 0 000-11.07"/></g></svg>