<svg xmlns="http://www.w3.org/2000/svg" width="512" height="512"><rect width="100%" height="100%" fill="transparent"/><rect vector-effect="non-scaling-stroke" x="-256" y="-256" rx="0" ry="0" width="512" height="512" fill="none" transform="translate(256 256)"/><g><path vector-effect="non-scaling-stroke" fill="#e44d26" d="M109.49 470.124L76.492 100.012h362.594l-33.036 370.052-148.48 41.164z"/><path vector-effect="non-scaling-stroke" fill="#f16529" d="M257.442 479.696l119.972-33.256 28.228-316.224h-148.2z"/><path vector-effect="non-scaling-stroke" fill="#ebebeb" d="M257.653 267.398h-60.066l-4.148-46.482h64.214v-45.391H143.838l1.08 12.175 11.155 125.09h101.58zM257.64 384.974l-.2.05-50.56-13.644-3.228-36.206H158.08l6.368 71.272 92.983 25.81.21-.06z"/><path vector-effect="non-scaling-stroke" d="M110.17-.374h23.068v22.79h21.102V-.373h23.069v69.016H154.34v-23.11h-21.102v23.11h-23.067V-.374zM207.583 22.513h-20.307V-.374h63.694v22.887h-20.317v46.13h-23.069v-46.13zM260.947-.374H285l14.796 24.25 14.781-24.25h24.062v69.016h-22.972V34.434l-15.871 24.54h-.397l-15.881-24.54v34.208h-22.571V-.374zM349.933-.374h23.074v46.203h32.44v22.813h-55.514V-.374zM257.28 267.21v45.392h55.897l-5.268 58.867-50.63 13.664v47.231l93.063-25.79.68-7.666 10.665-119.513 1.11-12.185h-12.235zM257.272 175.517V220.919h109.646l.91-10.206 2.068-23.011 1.09-12.185z" fill="#fff"/></g></svg>