<?xml version="1.0" encoding="UTF-8" standalone="no"?>
<svg
   xmlns:dc="http://purl.org/dc/elements/1.1/"
   xmlns:cc="http://creativecommons.org/ns#"
   xmlns:rdf="http://www.w3.org/1999/02/22-rdf-syntax-ns#"
   xmlns:svg="http://www.w3.org/2000/svg"
   xmlns="http://www.w3.org/2000/svg"
   xmlns:sodipodi="http://sodipodi.sourceforge.net/DTD/sodipodi-0.dtd"
   xmlns:inkscape="http://www.inkscape.org/namespaces/inkscape"
   width="138.17232mm"
   height="25.64871mm"
   viewBox="0 0 138.17232 25.64871"
   version="1.1"
   id="svg8"
   inkscape:version="1.0.1 (1.0.1+r74)"
   sodipodi:docname="Jamstack_Logo.svg">
  <defs
     id="defs2" />
  <sodipodi:namedview
     id="base"
     pagecolor="#ffffff"
     bordercolor="#666666"
     borderopacity="1.0"
     inkscape:pageopacity="0.0"
     inkscape:pageshadow="2"
     inkscape:zoom="1.4"
     inkscape:cx="263.35848"
     inkscape:cy="56.174569"
     inkscape:document-units="mm"
     inkscape:current-layer="layer1"
     inkscape:document-rotation="0"
     showgrid="false"
     inkscape:pagecheckerboard="true"
     fit-margin-top="0"
     fit-margin-left="0"
     fit-margin-right="0"
     fit-margin-bottom="0"
     inkscape:window-width="1920"
     inkscape:window-height="1010"
     inkscape:window-x="1440"
     inkscape:window-y="0"
     inkscape:window-maximized="1" />
  <metadata
     id="metadata5">
    <rdf:RDF>
      <cc:Work
         rdf:about="">
        <dc:format>image/svg+xml</dc:format>
        <dc:type
           rdf:resource="http://purl.org/dc/dcmitype/StillImage" />
        <dc:title></dc:title>
      </cc:Work>
    </rdf:RDF>
  </metadata>
  <g
     inkscape:label="Layer 1"
     inkscape:groupmode="layer"
     id="layer1"
     transform="translate(-39.521543,-105.15713)">
    <g
       id="g49">
      <path
         d="m 82.799464,118.71883 v -9.4615 h -4.0005 v 10.45633 c 0,0.86784 -0.0635,1.98972 -1.2065,1.98972 -1.016,0 -1.164166,-1.03722 -1.2065,-1.82038 h -4.2545 c 0,2.28605 0.931334,4.14871 3.153834,4.95305 0.656166,0.254 1.397,0.381 2.116666,0.381 1.672167,0 3.3655,-0.74084 4.423834,-2.05317 0.973666,-1.22767 0.973666,-2.94222 0.973666,-4.44505 z m 14.638867,6.20188 v -11.74755 h -3.513667 v 1.24884 h -0.04233 c -0.6985,-1.16417 -2.137833,-1.651 -3.429,-1.651 -3.534833,0 -5.9055,2.83633 -5.9055,6.26533 0,3.49255 2.286,6.28655 5.9055,6.28655 1.27,0 2.794,-0.46567 3.429,-1.67217 h 0.04233 v 1.27 z m -3.513667,-5.88438 c 0,1.69333 -1.227666,3.00572 -2.942166,3.00572 -1.651,0 -2.921,-1.33355 -2.921,-2.96339 0,-1.67216 1.185333,-3.02683 2.899833,-3.02683 1.7145,0 2.963333,1.27 2.963333,2.9845 z m 24.110946,5.88438 v -6.41355 c 0,-1.79916 0.0635,-3.19616 -1.27,-4.55083 -0.8255,-0.84667 -1.92616,-1.18533 -3.09033,-1.18533 -1.5875,0 -2.87867,0.762 -3.72533,2.0955 -0.71967,-1.3335 -1.86267,-2.0955 -3.38667,-2.0955 -1.3335,0 -2.56117,0.4445 -3.2385,1.651 h -0.0423 v -1.24884 h -3.28084 v 11.74755 h 3.51367 v -6.24421 c 0,-1.37584 0.35983,-2.6035 1.98967,-2.6035 1.48166,0 1.75683,1.24883 1.75683,2.45533 v 6.39238 h 3.51367 v -6.41355 c 0,-1.3335 0.381,-2.43416 1.94733,-2.43416 1.62983,0 1.79917,1.31233 1.79917,2.6035 v 6.24421 z m 11.27655,-3.59838 c 0,-4.14867 -5.9055,-3.1115 -5.9055,-4.953 0,-0.52917 0.52916,-0.78317 0.99483,-0.78317 0.61383,0 1.0795,0.23284 1.10067,0.889 h 3.45016 c -0.23283,-2.49766 -2.159,-3.70416 -4.5085,-3.70416 -2.26483,0 -4.55083,1.41816 -4.55083,3.8735 0,1.651 1.397,2.56116 2.794,3.06916 0.508,0.1905 1.016,0.35984 1.524,0.52917 0.635,0.254 1.5875,0.508 1.5875,1.35472 0,0.61383 -0.6985,0.91016 -1.22767,0.91016 -0.6985,0 -1.22766,-0.35983 -1.3335,-1.07955 h -3.4925 c 0.27517,2.58239 2.32834,3.89472 4.78367,3.89472 2.39183,0 4.78367,-1.35467 4.78367,-4.00055 z m 7.66286,-5.48217 v -2.667 h -1.69334 v -3.91583 h -3.51366 v 3.91583 h -1.73567 v 2.667 h 1.73567 v 9.08055 h 3.51366 v -9.08055 z m 13.54534,9.08055 v -11.74755 h -3.51367 v 1.24884 h -0.0423 c -0.6985,-1.16417 -2.13783,-1.651 -3.429,-1.651 -3.53483,0 -5.9055,2.83633 -5.9055,6.26533 0,3.49255 2.286,6.28655 5.9055,6.28655 1.27,0 2.794,-0.46567 3.429,-1.67217 h 0.0423 v 1.27 z m -3.51367,-5.88438 c 0,1.69333 -1.22766,3.00572 -2.94216,3.00572 -1.651,0 -2.921,-1.33355 -2.921,-2.96339 0,-1.67216 1.18533,-3.02683 2.89983,-3.02683 1.7145,0 2.96333,1.27 2.96333,2.9845 z m 17.95145,1.41817 h -3.57716 c -0.52917,1.016 -1.37584,1.56638 -2.54,1.56638 -1.7145,0 -2.794,-1.33355 -2.794,-2.98455 0,-1.5875 1.016,-2.9845 2.70933,-2.9845 1.2065,0 2.11667,0.55033 2.62467,1.651 h 3.556 c -0.61384,-2.9845 -3.21734,-4.93183 -6.223,-4.93183 -3.4925,0 -6.20184,2.77283 -6.20184,6.24416 0,3.51372 2.77284,6.28655 6.2865,6.28655 2.96334,0 5.48217,-1.9685 6.1595,-4.84721 z m 12.73572,-7.28134 h -4.16983 l -3.25967,4.2545 h -0.0423 v -8.17033 h -3.51367 v 15.66338 h 3.51367 v -5.65155 h 0.0423 l 3.32317,5.65155 h 3.97933 l -4.29683,-6.58288 z"
         fill="#ffffff"
         id="path12"
         style="stroke-width:0.264583" />
      <path
         d="m 52.345923,105.15713 c -7.091336,0 -12.82438,5.73305 -12.82438,12.82438 0,7.09134 5.733044,12.82433 12.82438,12.82433 7.091362,0 12.824354,-5.73299 12.824354,-12.82433 v -12.82438 z"
         fill="#f0047f"
         id="path14"
         style="stroke-width:0.264583" />
      <path
         d="m 51.9314,118.37842 v 8.99181 c -4.866719,-0.20585 -8.78586,-4.12512 -8.991758,-8.99181 z"
         fill="#ffffff"
         stroke="#f0047f"
         id="path16"
         style="stroke-width:0.264583" />
      <path
         d="m 52.742825,118.39598 h 8.991838 c -0.206111,4.86659 -4.125119,8.78586 -8.991838,8.99171 z"
         fill="#ffffff"
         stroke="#f0047f"
         id="path18"
         style="stroke-width:0.264583" />
      <path
         d="m 52.742825,117.56697 v -8.99647 h 8.9966 v 8.99647 z"
         fill="#ffffff"
         stroke="#f0047f"
         id="path20"
         style="stroke-width:0.264583" />
    </g>
  </g>
</svg>
