<?xml version="1.0" encoding="UTF-8" standalone="no"?>
<svg
   xmlns:dc="http://purl.org/dc/elements/1.1/"
   xmlns:cc="http://creativecommons.org/ns#"
   xmlns:rdf="http://www.w3.org/1999/02/22-rdf-syntax-ns#"
   xmlns:svg="http://www.w3.org/2000/svg"
   xmlns="http://www.w3.org/2000/svg"
   xmlns:sodipodi="http://sodipodi.sourceforge.net/DTD/sodipodi-0.dtd"
   xmlns:inkscape="http://www.inkscape.org/namespaces/inkscape"
   width="10.225346mm"
   height="8.9045401mm"
   viewBox="0 0 10.225346 8.9045401"
   version="1.1"
   id="svg1085"
   inkscape:version="1.0.1 (3bc2e813f5, 2020-09-07)"
   sodipodi:docname="black-logo.svg">
  <defs
     id="defs1079" />
  <sodipodi:namedview
     id="base"
     pagecolor="#ffffff"
     bordercolor="#666666"
     borderopacity="1.0"
     inkscape:pageopacity="0.0"
     inkscape:pageshadow="2"
     inkscape:zoom="15.839192"
     inkscape:cx="34.222033"
     inkscape:cy="27.684326"
     inkscape:document-units="mm"
     inkscape:current-layer="layer1"
     inkscape:document-rotation="0"
     showgrid="false"
     inkscape:pagecheckerboard="true"
     fit-margin-top="0"
     fit-margin-left="0"
     fit-margin-right="0"
     fit-margin-bottom="0"
     inkscape:window-width="2560"
     inkscape:window-height="1506"
     inkscape:window-x="-11"
     inkscape:window-y="-11"
     inkscape:window-maximized="1" />
  <metadata
     id="metadata1082">
    <rdf:RDF>
      <cc:Work
         rdf:about="">
        <dc:format>image/svg+xml</dc:format>
        <dc:type
           rdf:resource="http://purl.org/dc/dcmitype/StillImage" />
        <dc:title></dc:title>
      </cc:Work>
    </rdf:RDF>
  </metadata>
  <g
     inkscape:label="Layer 1"
     inkscape:groupmode="layer"
     id="layer1"
     transform="translate(-67.851908,-103.65818)">
    <g
       id="g1658">
      <path
         d="m 71.727308,106.78014 v 3.83438 c 0,0.5271 -0.19637,0.98358 -0.589109,1.36943 -0.392739,0.38584 -0.861271,0.57877 -1.405595,0.57877 -0.327283,0 -0.649398,-0.0741 -0.966346,-0.22221 -0.313503,-0.15158 -0.542281,-0.28098 -0.91435,-0.62204 l 0.320038,-0.32363 c 0.265271,0.2446 0.527098,0.42891 0.785479,0.55293 0.261827,0.12058 0.520208,0.18087 0.775144,0.18087 0.282497,0 0.549492,-0.0689 0.800983,-0.20671 0.18948,-0.10335 0.361733,-0.27733 0.516762,-0.52193 0.158474,-0.2446 0.237711,-0.50642 0.237711,-0.78548 v -3.83438 h -1.700149 v -0.43407 l 4.680838,-5.8e-4 c 3.7e-4,0.33961 0.0015,0.094 0,0.43408 z"
         style="font-style:normal;font-variant:normal;font-weight:normal;font-stretch:normal;font-size:10.5833px;line-height:1.25;font-family:'Courier New';-inkscape-font-specification:'Courier New, Normal';font-variant-ligatures:normal;font-variant-caps:normal;font-variant-numeric:normal;font-variant-east-asian:normal;fill:#000000;fill-opacity:1;stroke:none;stroke-width:0.264583"
         id="path997-5-6-0"
         sodipodi:nodetypes="csssccccsccscccccc" />
      <path
         d="m 77.147083,106.77957 h -2.878369 v 2.4908 h 0.583942 v 0.43408 h -1.508927 v -0.43408 h 0.490904 v -5.17504 h -0.490904 v -0.43115 l 1.508927,-0.006 v 0.437 h -0.583942 v 2.25016 h 2.878369 v -2.25308 h -0.578775 l -2e-6,-0.43408 h 1.508948 v 0.43408 h -0.490925 v 5.17796 h 0.490925 v 0.43408 h -1.508948 l -2e-6,-0.43408 h 0.578775 z"
         style="font-style:normal;font-variant:normal;font-weight:normal;font-stretch:normal;font-size:10.5833px;line-height:1.25;font-family:'Courier New';-inkscape-font-specification:'Courier New, Normal';font-variant-ligatures:normal;font-variant-caps:normal;font-variant-numeric:normal;font-variant-east-asian:normal;fill:#000000;fill-opacity:1;stroke:none;stroke-width:0.264583"
         id="path999-0-5-1"
         sodipodi:nodetypes="ccccccccccccccccccccccccccccc" />
    </g>
  </g>
</svg>
