<?xml version="1.0" encoding="UTF-8" standalone="no" ?>
<!DOCTYPE svg PUBLIC "-//W3C//DTD SVG 1.1//EN" "http://www.w3.org/Graphics/SVG/1.1/DTD/svg11.dtd">
<svg xmlns="http://www.w3.org/2000/svg" xmlns:xlink="http://www.w3.org/1999/xlink" version="1.1" width="1080" height="1080" viewBox="0 0 1080 1080" xml:space="preserve">
<desc>Created with Fabric.js 4.2.0</desc>
<defs>
</defs>
<rect x="0" y="0" width="100%" height="100%" fill="transparent"></rect>
<g transform="matrix(1 0 0 1 540 540)" id="a3383e9f-5285-4e4b-a3ea-e5901f3b39dd"  >
<rect style="stroke: none; stroke-width: 1; stroke-dasharray: none; stroke-linecap: butt; stroke-dashoffset: 0; stroke-linejoin: miter; stroke-miterlimit: 4; fill: rgb(255,255,255); fill-opacity: 0; fill-rule: nonzero; opacity: 1;" vector-effect="non-scaling-stroke"  x="-540" y="-540" rx="0" ry="0" width="1080" height="1080" />
</g>
<g transform="matrix(1 0 0 1 540 540)" id="d5c28795-7118-4cc8-ba61-eaf4b46bce15"  >
</g>
<g transform="matrix(2.89 0 0 2.89 539.55 540.23)"  >
<g style="" vector-effect="non-scaling-stroke"   >
		<g transform="matrix(1 0 0 1 -87.65 -0.04)" id="XMLID_2_"  >
<path style="stroke: none; stroke-width: 1; stroke-dasharray: none; stroke-linecap: butt; stroke-dashoffset: 0; stroke-linejoin: miter; stroke-miterlimit: 4; fill: rgb(235,112,119); fill-rule: nonzero; opacity: 1;" vector-effect="non-scaling-stroke"  transform=" translate(-162.4, -249.91)" d="M 157.6 162.4 C 158.9 160.20000000000002 160.6 158 163.1 156.9 C 164.1 156.70000000000002 165.1 156.8 166.1 156.8 L 216 156.8 C 214.5 158 213.1 159.3 212.2 161 C 209.6 165.2 207.89999999999998 169.9 206.29999999999998 174.5 C 201.79999999999998 188.6 198.7 203.1 195.6 217.6 C 194.2 224.2 192.9 230.79999999999998 191.7 237.29999999999998 C 187.89999999999998 258.79999999999995 184 280.2 179.1 301.5 C 176.79999999999998 311.3 174.4 321.1 170.79999999999998 330.6 C 169.1 334.5 167.49999999999997 338.70000000000005 164.29999999999998 341.6 C 163.6 342.3 162.79999999999998 343.1 161.7 343 L 117.69999999999999 343 C 114.69999999999999 342.9 111.79999999999998 343.2 108.79999999999998 342.9 C 110.79999999999998 341.4 112.49999999999999 339.5 113.69999999999999 337.29999999999995 C 116.99999999999999 330.99999999999994 119.1 324.19999999999993 121.1 317.4 C 124.19999999999999 306.5 126.6 295.4 129 284.4 C 130.5 277.09999999999997 132.2 269.9 133.2 262.59999999999997 C 134.39999999999998 254.49999999999997 136.2 246.39999999999998 137.6 238.29999999999995 C 139.9 226.39999999999995 142.29999999999998 214.39999999999995 145 202.59999999999997 C 147.2 193.39999999999998 149.4 184.09999999999997 152.3 175.09999999999997 C 153.7 170.8 155.3 166.4 157.6 162.4 z" stroke-linecap="round" />
</g>
		<g transform="matrix(1 0 0 1 -87.7 0)" id="XMLID_3_"  >
<path style="stroke: none; stroke-width: 1; stroke-dasharray: none; stroke-linecap: butt; stroke-dashoffset: 0; stroke-linejoin: miter; stroke-miterlimit: 4; fill: rgb(235,112,119); fill-rule: nonzero; opacity: 1;" vector-effect="non-scaling-stroke"  transform=" translate(-162.35, -249.95)" d="M 157.6 162.4 L 157.6 162.4 C 159 160.20000000000002 160.7 158 163.1 157 L 163.1 156.9 L 163.1 157 C 163.6 156.9 164.1 156.9 164.6 156.9 C 165.1 156.9 165.6 156.9 166.1 156.9 L 216 156.9 L 216 156.8 L 216 156.70000000000002 C 214.5 157.9 213.1 159.20000000000002 212.2 160.9 L 212.29999999999998 160.9 L 212.2 160.9 C 209.6 165.1 207.89999999999998 169.8 206.29999999999998 174.4 L 206.29999999999998 174.4 C 201.79999999999998 188.5 198.7 203 195.6 217.5 C 194.2 224.1 192.9 230.7 191.7 237.2 C 187.89999999999998 258.7 184 280.09999999999997 179.1 301.4 C 176.79999999999998 311.2 174.4 321 170.79999999999998 330.5 L 170.89999999999998 330.5 L 170.79999999999998 330.5 C 169.1 334.4 167.49999999999997 338.6 164.29999999999998 341.5 C 163.6 342.1 162.89999999999998 342.9 161.99999999999997 342.9 L 161.79999999999998 342.9 L 161.79999999999998 342.9 L 117.79999999999998 342.9 L 117.79999999999998 343 L 117.79999999999998 342.9 C 117.29999999999998 342.9 116.89999999999998 342.9 116.39999999999998 342.9 C 115.09999999999998 342.9 113.69999999999997 342.9 112.39999999999998 342.9 C 111.19999999999997 342.9 109.99999999999997 342.9 108.89999999999998 342.7 L 108.89999999999998 342.8 L 108.89999999999998 342.90000000000003 C 110.89999999999998 341.40000000000003 112.69999999999997 339.50000000000006 113.79999999999998 337.3 C 117.09999999999998 331 119.19999999999999 324.2 121.19999999999999 317.40000000000003 C 124.29999999999998 306.50000000000006 126.79999999999998 295.40000000000003 129.1 284.40000000000003 C 130.6 277.1 132.29999999999998 269.90000000000003 133.29999999999998 262.6 C 134.49999999999997 254.50000000000003 136.29999999999998 246.40000000000003 137.7 238.3 C 140 226.4 142.39999999999998 214.4 145.1 202.60000000000002 C 147.29999999999998 193.40000000000003 149.5 184.10000000000002 152.4 175.10000000000002 C 153.8 170.8 155.4 166.5 157.6 162.4 L 157.6 162.4 L 157.6 162.4 C 155.2 166.4 153.7 170.70000000000002 152.2 175.1 C 149.2 184.1 147 193.29999999999998 144.89999999999998 202.6 C 142.2 214.4 139.79999999999998 226.4 137.49999999999997 238.3 C 135.99999999999997 246.4 134.19999999999996 254.5 133.09999999999997 262.6 C 131.99999999999997 269.90000000000003 130.29999999999995 277.1 128.89999999999998 284.40000000000003 C 126.59999999999998 295.50000000000006 124.09999999999998 306.50000000000006 120.99999999999997 317.40000000000003 C 118.99999999999997 324.20000000000005 116.89999999999998 331.00000000000006 113.59999999999997 337.3 C 112.49999999999997 339.5 110.69999999999996 341.3 108.69999999999996 342.90000000000003 L 108.59999999999997 343.00000000000006 L 108.79999999999997 343.00000000000006 C 109.99999999999997 343.1000000000001 111.19999999999997 343.20000000000005 112.29999999999997 343.20000000000005 C 113.59999999999997 343.20000000000005 114.99999999999997 343.20000000000005 116.29999999999997 343.20000000000005 C 116.79999999999997 343.20000000000005 117.19999999999997 343.20000000000005 117.69999999999997 343.20000000000005 L 161.7 343.20000000000005 L 161.7 343.1 L 161.7 343.20000000000005 L 161.89999999999998 343.20000000000005 C 162.89999999999998 343.20000000000005 163.59999999999997 342.40000000000003 164.29999999999998 341.80000000000007 C 167.49999999999997 338.9000000000001 169.2 334.70000000000005 170.79999999999998 330.80000000000007 L 170.79999999999998 330.80000000000007 L 170.79999999999998 330.80000000000007 C 174.39999999999998 321.30000000000007 176.79999999999998 311.50000000000006 179.1 301.70000000000005 C 184 280.40000000000003 187.9 259.00000000000006 191.7 237.50000000000006 C 192.89999999999998 230.90000000000006 194.29999999999998 224.30000000000007 195.6 217.80000000000007 C 198.6 203.30000000000007 201.79999999999998 188.80000000000007 206.29999999999998 174.70000000000007 L 206.2 174.70000000000007 L 206.29999999999998 174.70000000000007 C 207.89999999999998 170.00000000000009 209.6 165.40000000000006 212.2 161.20000000000007 L 212.2 161.20000000000007 L 212.2 161.20000000000007 C 213.2 159.50000000000009 214.6 158.30000000000007 216 157.00000000000009 L 216.1 156.9000000000001 L 166.1 156.9000000000001 C 165.6 156.9000000000001 165.1 156.9000000000001 164.6 156.9000000000001 C 164.1 156.9000000000001 163.6 156.9000000000001 163.1 157.00000000000009 L 163.1 157.00000000000009 L 163.1 157.00000000000009 C 160.6 158 158.9 160.2 157.6 162.4 L 157.6 162.4 z" stroke-linecap="round" />
</g>
		<g transform="matrix(1 0 0 1 -29.55 0.09)" id="XMLID_4_"  >
<path style="stroke: none; stroke-width: 1; stroke-dasharray: none; stroke-linecap: butt; stroke-dashoffset: 0; stroke-linejoin: miter; stroke-miterlimit: 4; fill: rgb(246,162,173); fill-rule: nonzero; opacity: 1;" vector-effect="non-scaling-stroke"  transform=" translate(-220.5, -250.04)" d="M 216 156.9 C 217.3 156.9 218.6 156.9 219.8 156.9 C 222.60000000000002 158.4 225 160.8 226.3 163.70000000000002 C 228.10000000000002 167.00000000000003 229.5 170.60000000000002 230.8 174.20000000000002 C 235.20000000000002 187.8 238.20000000000002 201.8 241.20000000000002 215.8 C 243.8 228.3 246.20000000000002 240.9 248.50000000000003 253.5 C 248.70000000000002 254.2 248.50000000000003 255.1 249.30000000000004 255.3 C 246.10000000000005 271.90000000000003 243.00000000000003 288.5 239.00000000000003 304.90000000000003 C 236.80000000000004 313.8 234.60000000000002 322.6 231.30000000000004 331.1 C 229.50000000000003 335.40000000000003 227.70000000000005 340 224.00000000000003 343.1 C 221.60000000000002 343.6 219.90000000000003 341.8 218.50000000000003 340.20000000000005 C 216.00000000000003 337.00000000000006 214.40000000000003 333.20000000000005 213.00000000000003 329.40000000000003 C 208.00000000000003 315.8 205.00000000000003 301.70000000000005 201.90000000000003 287.6 C 199.60000000000002 276.6 197.50000000000003 265.6 195.30000000000004 254.60000000000002 C 194.30000000000004 249.00000000000003 193.00000000000003 243.50000000000003 192.30000000000004 237.90000000000003 C 192.20000000000005 237.80000000000004 191.90000000000003 237.60000000000002 191.70000000000005 237.50000000000003 C 192.90000000000003 230.90000000000003 194.30000000000004 224.30000000000004 195.60000000000005 217.80000000000004 C 198.60000000000005 203.30000000000004 201.80000000000004 188.80000000000004 206.30000000000004 174.70000000000005 C 207.90000000000003 170.00000000000006 209.60000000000005 165.40000000000003 212.20000000000005 161.20000000000005 C 213.1 159.4 214.5 158.1 216 156.9 z" stroke-linecap="round" />
</g>
		<g transform="matrix(1 0 0 1 -29.5 -0.1)" id="XMLID_5_"  >
<path style="stroke: none; stroke-width: 1; stroke-dasharray: none; stroke-linecap: butt; stroke-dashoffset: 0; stroke-linejoin: miter; stroke-miterlimit: 4; fill: rgb(246,162,173); fill-rule: nonzero; opacity: 1;" vector-effect="non-scaling-stroke"  transform=" translate(-220.55, -249.85)" d="M 216 156.9 L 216 156.9 C 216.9 157 217.7 156.9 218.6 156.9 C 219 156.9 219.5 156.9 219.9 156.9 L 219.9 156.8 L 219.9 156.9 C 222.70000000000002 158.4 225.1 160.8 226.4 163.70000000000002 L 226.4 163.70000000000002 L 226.4 163.70000000000002 C 228.20000000000002 167.00000000000003 229.6 170.60000000000002 230.9 174.20000000000002 L 231 174.20000000000002 L 230.9 174.20000000000002 C 235.3 187.8 238.3 201.8 241.3 215.8 C 243.9 228.3 246.3 240.9 248.60000000000002 253.5 L 248.60000000000002 253.5 L 248.60000000000002 253.5 C 248.70000000000002 253.8 248.70000000000002 254.2 248.8 254.6 C 248.9 254.9 249.10000000000002 255.29999999999998 249.5 255.29999999999998 L 249.5 255.2 L 249.4 255.2 C 246.20000000000002 271.8 243.1 288.4 239.1 304.8 C 236.9 313.7 234.7 322.5 231.4 331 C 229.6 335.3 227.8 339.9 224.1 343 L 224.1 343.1 L 224.1 343 C 223.79999999999998 343.1 223.5 343.1 223.29999999999998 343.1 C 221.39999999999998 343.1 219.89999999999998 341.6 218.6 340.1 L 218.6 340.1 L 218.7 340.1 C 216.2 336.90000000000003 214.7 333.1 213.2 329.3 C 208.2 315.7 205.2 301.6 202.1 287.5 C 199.79999999999998 276.5 197.7 265.5 195.5 254.5 L 195.4 254.5 L 195.5 254.5 C 194.5 248.9 193.2 243.4 192.5 237.8 L 192.5 237.8 L 192.5 237.8 C 192.4 237.70000000000002 192.1 237.5 191.9 237.4 L 191.9 237.5 L 192 237.5 C 193.2 230.9 194.6 224.3 195.9 217.8 C 198.9 203.3 202.1 188.8 206.6 174.70000000000002 L 206.5 174.70000000000002 L 206.6 174.70000000000002 C 208.2 170.00000000000003 209.9 165.4 212.5 161.20000000000002 L 212.5 161.20000000000002 L 212.5 161.20000000000002 C 213.2 159.4 214.6 158.2 216 156.9 L 216 156.9 L 216 156.9 L 216 156.9 L 216 156.9 C 214.5 158.1 213.1 159.4 212.1 161.1 L 212.2 161.1 L 212.1 161.1 C 209.5 165.29999999999998 207.79999999999998 170 206.2 174.6 L 206.2 174.6 C 201.7 188.7 198.6 203.2 195.5 217.7 C 194.1 224.29999999999998 192.8 230.89999999999998 191.6 237.39999999999998 L 191.6 237.39999999999998 L 191.6 237.39999999999998 C 191.7 237.49999999999997 192 237.7 192.2 237.79999999999998 L 192.2 237.7 L 192.1 237.7 C 192.79999999999998 243.29999999999998 194.2 248.79999999999998 195.1 254.39999999999998 L 195.1 254.39999999999998 L 195.1 254.39999999999998 C 197.29999999999998 265.4 199.29999999999998 276.5 201.7 287.4 C 204.79999999999998 301.5 207.79999999999998 315.59999999999997 212.79999999999998 329.2 C 214.29999999999998 333 215.79999999999998 336.8 218.39999999999998 340 L 218.39999999999998 340 L 218.39999999999998 340 C 219.7 341.4 221.2 343 223.2 343 C 223.5 343 223.79999999999998 343 224.1 342.9 L 224.1 342.9 L 224.1 342.9 C 227.9 339.79999999999995 229.7 335.2 231.4 330.9 C 234.70000000000002 322.29999999999995 237 313.5 239.1 304.7 C 243.1 288.3 246.2 271.7 249.4 255.1 L 249.4 255 L 249.3 255 C 248.9 254.9 248.70000000000002 254.7 248.70000000000002 254.4 C 248.60000000000002 254.1 248.60000000000002 253.70000000000002 248.50000000000003 253.3 L 248.40000000000003 253.3 L 248.50000000000003 253.3 C 246.20000000000002 240.70000000000002 243.80000000000004 228.10000000000002 241.20000000000002 215.60000000000002 C 238.20000000000002 201.60000000000002 235.20000000000002 187.60000000000002 230.8 174.00000000000003 L 230.8 174.00000000000003 L 230.8 174.00000000000003 C 229.5 170.40000000000003 228 166.90000000000003 226.3 163.50000000000003 L 226.20000000000002 163.50000000000003 L 226.3 163.50000000000003 C 225 160.50000000000003 222.60000000000002 158.10000000000002 219.8 156.60000000000002 L 219.8 156.60000000000002 L 219.8 156.60000000000002 C 219.4 156.60000000000002 218.9 156.60000000000002 218.5 156.60000000000002 C 217.7 156.8 216.8 156.8 216 156.9 L 216 156.9 L 216 156.9 L 216 156.9 z" stroke-linecap="round" />
</g>
		<g transform="matrix(1 0 0 1 27.45 0.1)" id="XMLID_6_"  >
<path style="stroke: none; stroke-width: 1; stroke-dasharray: none; stroke-linecap: butt; stroke-dashoffset: 0; stroke-linejoin: miter; stroke-miterlimit: 4; fill: rgb(235,112,119); fill-rule: nonzero; opacity: 1;" vector-effect="non-scaling-stroke"  transform=" translate(-277.5, -250.05)" d="M 271.1 164.5 C 272.70000000000005 161.5 274.6 158.1 278.1 156.9 C 295.6 156.8 313.1 156.9 330.6 156.9 C 329 158.5 327.3 160.20000000000002 326.20000000000005 162.20000000000002 C 322.80000000000007 168.3 320.80000000000007 175.00000000000003 318.80000000000007 181.70000000000002 C 313.6000000000001 200.00000000000003 309.9000000000001 218.70000000000002 306.50000000000006 237.5 C 303.30000000000007 256 299.80000000000007 274.4 295.90000000000003 292.8 C 293.90000000000003 302 291.8 311.3 289.1 320.40000000000003 C 287.40000000000003 326.00000000000006 285.6 331.70000000000005 282.8 337.00000000000006 C 281.40000000000003 339.40000000000003 279.8 342.00000000000006 277.3 343.20000000000005 C 260.6 343.30000000000007 243.9 343.20000000000005 227.20000000000002 343.20000000000005 C 226.3 343.20000000000005 225.3 343.20000000000005 224.4 343.1 C 228.1 340.1 229.9 335.40000000000003 231.70000000000002 331.1 C 235.00000000000003 322.6 237.20000000000002 313.70000000000005 239.4 304.90000000000003 C 243.4 288.50000000000006 246.5 271.90000000000003 249.70000000000002 255.30000000000004 C 253.50000000000003 233.90000000000003 257.5 212.60000000000002 262.6 191.50000000000006 C 264.7 182.3 267 173 271.1 164.5 z" stroke-linecap="round" />
</g>
		<g transform="matrix(1 0 0 1 27.2 0)" id="XMLID_7_"  >
<path style="stroke: none; stroke-width: 1; stroke-dasharray: none; stroke-linecap: butt; stroke-dashoffset: 0; stroke-linejoin: miter; stroke-miterlimit: 4; fill: rgb(235,112,119); fill-rule: nonzero; opacity: 1;" vector-effect="non-scaling-stroke"  transform=" translate(-277.25, -249.95)" d="M 271.1 164.5 L 271.1 164.5 C 272.70000000000005 161.5 274.70000000000005 158.1 278.1 157 L 278.1 156.9 L 278.1 157 C 286.8 157 295.6 156.9 304.3 156.9 C 313 156.9 321.8 156.9 330.5 156.9 L 330.5 156.8 L 330.5 156.8 C 328.9 158.4 327.1 160.10000000000002 326 162.10000000000002 L 326.1 162.10000000000002 L 326 162.10000000000002 C 322.6 168.20000000000002 320.6 174.90000000000003 318.6 181.60000000000002 L 318.6 181.60000000000002 C 313.40000000000003 199.90000000000003 309.70000000000005 218.60000000000002 306.3 237.40000000000003 C 303.1 255.90000000000003 299.6 274.3 295.7 292.70000000000005 C 293.7 301.90000000000003 291.59999999999997 311.20000000000005 288.9 320.30000000000007 C 287.2 325.9000000000001 285.4 331.6000000000001 282.59999999999997 336.80000000000007 C 281.2 339.20000000000005 279.7 341.80000000000007 277.09999999999997 343.00000000000006 L 277.09999999999997 343.1000000000001 L 277.09999999999997 343.00000000000006 C 271.2 343.00000000000006 265.2 343.1000000000001 259.29999999999995 343.1000000000001 C 251.09999999999997 343.1000000000001 242.89999999999995 343.1000000000001 234.69999999999996 343.1000000000001 C 232.09999999999997 343.1000000000001 229.49999999999997 343.1000000000001 226.89999999999995 343.1000000000001 C 225.99999999999994 343.1000000000001 224.99999999999994 343.1000000000001 224.09999999999994 343.00000000000006 L 224.09999999999994 343.1000000000001 L 224.09999999999994 343.2000000000001 C 227.89999999999995 340.1000000000001 229.69999999999993 335.5000000000001 231.39999999999995 331.2000000000001 C 234.69999999999996 322.6000000000001 236.99999999999994 313.8000000000001 239.09999999999994 305.0000000000001 C 243.09999999999994 288.60000000000014 246.19999999999993 272.0000000000001 249.39999999999995 255.40000000000012 C 253.19999999999996 234.0000000000001 257.19999999999993 212.7000000000001 262.29999999999995 191.60000000000014 C 264.8 182.3 267.1 173 271.1 164.5 L 271.1 164.5 L 271.1 164.5 L 271.1 164.5 L 271.1 164.5 C 266.90000000000003 173 264.6 182.2 262.3 191.4 C 257.2 212.5 253.20000000000002 233.9 249.3 255.2 C 246.10000000000002 271.8 243 288.4 239 304.8 C 236.8 313.7 234.6 322.5 231.3 331 C 229.5 335.3 227.70000000000002 339.9 224 343 L 223.9 343.1 L 224.1 343.1 C 225 343.20000000000005 226 343.20000000000005 226.9 343.20000000000005 C 229.5 343.20000000000005 232.1 343.20000000000005 234.70000000000002 343.20000000000005 C 242.9 343.20000000000005 251.10000000000002 343.20000000000005 259.3 343.20000000000005 C 265.2 343.20000000000005 271.2 343.20000000000005 277.1 343.1 L 277.1 343.1 L 277.1 343.1 C 279.70000000000005 341.90000000000003 281.3 339.20000000000005 282.70000000000005 336.90000000000003 C 285.50000000000006 331.6 287.30000000000007 326.00000000000006 289.00000000000006 320.3 C 291.70000000000005 311.2 293.80000000000007 302 295.80000000000007 292.7 C 299.70000000000005 274.3 303.20000000000005 255.89999999999998 306.4000000000001 237.39999999999998 C 309.9000000000001 218.7 313.5000000000001 199.99999999999997 318.7000000000001 181.59999999999997 L 318.6000000000001 181.59999999999997 L 318.7000000000001 181.59999999999997 C 320.7000000000001 174.89999999999998 322.7000000000001 168.19999999999996 326.1000000000001 162.09999999999997 L 326.1000000000001 162.09999999999997 C 327.2000000000001 159.99999999999997 328.9000000000001 158.39999999999998 330.50000000000006 156.79999999999995 L 330.6000000000001 156.69999999999996 L 330.4000000000001 156.69999999999996 C 321.7000000000001 156.69999999999996 312.9000000000001 156.69999999999996 304.2000000000001 156.69999999999996 C 295.5000000000001 156.69999999999996 286.7000000000001 156.69999999999996 278.0000000000001 156.79999999999995 L 278.0000000000001 156.79999999999995 L 278.0000000000001 156.79999999999995 C 274.6 158 272.6 161.4 271.1 164.5 L 271.1 164.5 L 271.1 164.5 L 271.1 164.5 z" stroke-linecap="round" />
</g>
		<g transform="matrix(1 0 0 1 86.15 0.02)" id="XMLID_8_"  >
<path style="stroke: none; stroke-width: 1; stroke-dasharray: none; stroke-linecap: butt; stroke-dashoffset: 0; stroke-linejoin: miter; stroke-miterlimit: 4; fill: rgb(246,162,173); fill-rule: nonzero; opacity: 1;" vector-effect="non-scaling-stroke"  transform=" translate(-336.2, -249.97)" d="M 330.5 156.9 C 331.9 156.9 333.4 156.9 334.8 156.9 C 337.1 158.1 338.7 160.1 340.2 162.20000000000002 C 342.59999999999997 166.00000000000003 344.09999999999997 170.3 345.59999999999997 174.4 C 349.29999999999995 185.6 351.99999999999994 197.20000000000002 354.49999999999994 208.7 C 357.79999999999995 224.2 360.79999999999995 239.89999999999998 363.59999999999997 255.5 C 364.29999999999995 259.2 364.99999999999994 263 365.4 266.8 C 365.59999999999997 267 365.9 267.3 366.09999999999997 267.5 C 364.49999999999994 269.7 363.9 272.3 362.99999999999994 274.9 C 360.19999999999993 283.79999999999995 358.3999999999999 293.09999999999997 356.8999999999999 302.29999999999995 C 355.69999999999993 309.49999999999994 354.0999999999999 316.69999999999993 351.7999999999999 323.69999999999993 C 350.0999999999999 328.8999999999999 348.0999999999999 333.99999999999994 344.7999999999999 338.29999999999995 C 343.1999999999999 340.4 341.0999999999999 341.99999999999994 338.6999999999999 342.99999999999994 C 334.9999999999999 343.3999999999999 332.89999999999986 339.8999999999999 331.09999999999985 337.29999999999995 C 327.39999999999986 330.9 325.49999999999983 323.79999999999995 323.29999999999984 316.79999999999995 C 316.29999999999984 290.99999999999994 311.79999999999984 264.69999999999993 306.89999999999986 238.39999999999995 C 306.89999999999986 237.99999999999994 306.59999999999985 237.69999999999996 306.29999999999984 237.49999999999994 C 309.79999999999984 218.79999999999995 313.39999999999986 200.09999999999994 318.59999999999985 181.69999999999993 C 320.59999999999985 174.99999999999994 322.59999999999985 168.29999999999993 325.99999999999983 162.19999999999993 C 327.2 160.1 328.9 158.5 330.5 156.9 z" stroke-linecap="round" />
</g>
		<g transform="matrix(1 0 0 1 86.15 0)" id="XMLID_9_"  >
<path style="stroke: none; stroke-width: 1; stroke-dasharray: none; stroke-linecap: butt; stroke-dashoffset: 0; stroke-linejoin: miter; stroke-miterlimit: 4; fill: rgb(246,162,173); fill-rule: nonzero; opacity: 1;" vector-effect="non-scaling-stroke"  transform=" translate(-336.2, -249.95)" d="M 330.5 156.9 L 330.5 156.9 C 331.4 157 332.4 156.9 333.4 156.9 C 333.9 156.9 334.29999999999995 156.9 334.79999999999995 156.9 L 334.79999999999995 156.8 L 334.79999999999995 156.9 C 337.09999999999997 158.1 338.69999999999993 160.1 340.09999999999997 162.20000000000002 L 340.2 162.20000000000002 L 340.09999999999997 162.20000000000002 C 342.49999999999994 166.00000000000003 343.99999999999994 170.20000000000002 345.49999999999994 174.4 L 345.59999999999997 174.4 L 345.49999999999994 174.4 C 349.19999999999993 185.6 351.8999999999999 197.20000000000002 354.3999999999999 208.7 C 357.69999999999993 224.2 360.69999999999993 239.89999999999998 363.49999999999994 255.5 C 364.19999999999993 259.2 364.8999999999999 263 365.29999999999995 266.8 L 365.29999999999995 266.8 L 365.29999999999995 266.8 C 365.49999999999994 267 365.79999999999995 267.3 365.99999999999994 267.5 L 365.99999999999994 267.5 L 365.8999999999999 267.5 C 364.2999999999999 269.7 363.69999999999993 272.4 362.7999999999999 274.9 L 362.7999999999999 274.9 C 359.9999999999999 283.79999999999995 358.1999999999999 293.09999999999997 356.6999999999999 302.29999999999995 C 355.4999999999999 309.49999999999994 353.89999999999986 316.69999999999993 351.59999999999985 323.69999999999993 C 349.89999999999986 328.8999999999999 347.89999999999986 333.99999999999994 344.59999999999985 338.29999999999995 C 342.99999999999983 340.4 340.89999999999986 341.9 338.49999999999983 342.99999999999994 L 338.49999999999983 343.09999999999997 L 338.49999999999983 342.99999999999994 C 338.29999999999984 342.99999999999994 338.09999999999985 342.99999999999994 337.8999999999998 342.99999999999994 C 334.5999999999998 342.99999999999994 332.5999999999998 339.69999999999993 330.8999999999998 337.29999999999995 L 330.7999999999998 337.29999999999995 L 330.8999999999998 337.29999999999995 C 327.1999999999998 330.9 325.2999999999998 323.79999999999995 323.1999999999998 316.79999999999995 L 323.0999999999998 316.79999999999995 L 323.1999999999998 316.79999999999995 C 316.1999999999998 290.99999999999994 311.6999999999998 264.69999999999993 306.79999999999984 238.39999999999995 L 306.6999999999998 238.39999999999995 L 306.79999999999984 238.39999999999995 C 306.79999999999984 237.99999999999994 306.49999999999983 237.59999999999994 306.09999999999985 237.39999999999995 L 306.09999999999985 237.49999999999994 L 306.1999999999999 237.49999999999994 C 309.6999999999999 218.79999999999995 313.2999999999999 200.09999999999994 318.4999999999999 181.69999999999993 L 318.39999999999986 181.69999999999993 L 318.4999999999999 181.69999999999993 C 320.4999999999999 174.99999999999994 322.4999999999999 168.29999999999993 325.89999999999986 162.19999999999993 L 325.89999999999986 162.19999999999993 C 327.2 160.2 328.9 158.6 330.5 156.9 L 330.5 156.9 L 330.5 156.9 L 330.5 156.9 L 330.5 156.9 C 328.8 158.5 327.1 160.1 326 162.20000000000002 L 326.1 162.20000000000002 L 326 162.20000000000002 C 322.6 168.3 320.6 175.00000000000003 318.6 181.70000000000002 L 318.6 181.70000000000002 C 313.40000000000003 200.00000000000003 309.70000000000005 218.70000000000002 306.3 237.5 L 306.3 237.5 L 306.3 237.5 C 306.6 237.7 306.8 238 306.90000000000003 238.4 L 306.90000000000003 238.4 L 306.90000000000003 238.4 C 311.8 264.6 316.3 291 323.3 316.8 L 323.3 316.8 L 323.3 316.8 C 325.40000000000003 323.8 327.40000000000003 330.90000000000003 331.1 337.3 L 331.1 337.3 L 331.1 337.3 C 332.8 339.8 334.8 343.1 338.20000000000005 343.1 C 338.40000000000003 343.1 338.6 343.1 338.80000000000007 343.1 L 338.80000000000007 343.1 L 338.80000000000007 343.1 C 341.20000000000005 342 343.4000000000001 340.40000000000003 344.9000000000001 338.40000000000003 C 348.30000000000007 334.1 350.30000000000007 329.00000000000006 352.0000000000001 323.8 C 354.2000000000001 316.8 355.9000000000001 309.7 357.10000000000014 302.40000000000003 C 358.60000000000014 293.20000000000005 360.40000000000015 283.90000000000003 363.20000000000016 275.00000000000006 L 363.10000000000014 275.00000000000006 L 363.20000000000016 275.00000000000006 C 364.10000000000014 272.50000000000006 364.70000000000016 269.80000000000007 366.3000000000002 267.70000000000005 L 366.3000000000002 267.70000000000005 L 366.3000000000002 267.70000000000005 C 366.20000000000016 267.6 365.8000000000002 267.20000000000005 365.6000000000002 267.00000000000006 L 365.6000000000002 267.00000000000006 L 365.7000000000002 267.00000000000006 C 365.30000000000024 263.20000000000005 364.6000000000002 259.40000000000003 363.80000000000024 255.70000000000005 C 360.90000000000026 240.10000000000005 358.0000000000002 224.40000000000003 354.7000000000002 208.90000000000003 C 352.2000000000002 197.40000000000003 349.5000000000002 185.80000000000004 345.80000000000024 174.60000000000002 L 345.80000000000024 174.60000000000002 L 345.80000000000024 174.60000000000002 C 344.30000000000024 170.40000000000003 342.80000000000024 166.10000000000002 340.40000000000026 162.3 L 340.40000000000026 162.3 L 340.40000000000026 162.3 C 338.90000000000026 160.20000000000002 337.30000000000024 158.20000000000002 335.0000000000003 157 L 335.0000000000003 157 L 335.0000000000003 157 C 334.5000000000003 157 334.1000000000003 157 333.6000000000003 157 C 332.4 156.8 331.4 156.8 330.5 156.9 L 330.5 156.9 L 330.5 156.9 L 330.5 156.9 z" stroke-linecap="round" />
</g>
		<g transform="matrix(1 0 0 1 -149.75 49.91)" id="XMLID_10_"  >
<path style="stroke: none; stroke-width: 1; stroke-dasharray: none; stroke-linecap: butt; stroke-dashoffset: 0; stroke-linejoin: miter; stroke-miterlimit: 4; fill: rgb(246,162,173); fill-rule: nonzero; opacity: 1;" vector-effect="non-scaling-stroke"  transform=" translate(-100.3, -299.86)" d="M 67.5 257.1 C 68.6 257 69.8 256.8 71 256.8 L 119 256.8 C 121 257.1 123.1 256.90000000000003 125.1 257.8 C 127.89999999999999 258.90000000000003 130.4 260.90000000000003 132.29999999999998 263.3 C 132.49999999999997 263.2 132.89999999999998 262.8 133.1 262.6 C 132 269.90000000000003 130.29999999999998 277.1 128.9 284.40000000000003 C 126.60000000000001 295.50000000000006 124.10000000000001 306.50000000000006 121 317.40000000000003 C 119 324.20000000000005 116.9 331.00000000000006 113.6 337.3 C 112.5 339.5 110.69999999999999 341.40000000000003 108.69999999999999 342.90000000000003 C 107.99999999999999 343.00000000000006 107.39999999999999 342.50000000000006 106.79999999999998 342.1 C 104.69999999999999 340.8 103.49999999999999 338.5 102.29999999999998 336.40000000000003 C 96.29999999999998 322.70000000000005 95.59999999999998 307.50000000000006 91.89999999999998 293.1 C 89.99999999999997 285.90000000000003 87.69999999999997 278.8 84.19999999999997 272.20000000000005 C 82.09999999999998 268.20000000000005 79.49999999999997 264.40000000000003 76.09999999999998 261.40000000000003 C 73.5 259.5 70.6 257.8 67.5 257.1 z" stroke-linecap="round" />
</g>
		<g transform="matrix(1 0 0 1 -149.7 49.95)" id="XMLID_11_"  >
<path style="stroke: none; stroke-width: 1; stroke-dasharray: none; stroke-linecap: butt; stroke-dashoffset: 0; stroke-linejoin: miter; stroke-miterlimit: 4; fill: rgb(246,162,173); fill-rule: nonzero; opacity: 1;" vector-effect="non-scaling-stroke"  transform=" translate(-100.35, -299.9)" d="M 67.5 257.1 L 67.5 257.1 C 68.7 257.1 69.8 256.90000000000003 71 256.90000000000003 L 119 256.90000000000003 L 119 256.8 L 119 256.90000000000003 C 121 257.20000000000005 123.1 257.00000000000006 125.1 257.90000000000003 L 125.1 257.90000000000003 L 125.1 257.90000000000003 C 127.89999999999999 259.00000000000006 130.4 261.00000000000006 132.29999999999998 263.40000000000003 L 132.29999999999998 263.40000000000003 L 132.39999999999998 263.40000000000003 C 132.59999999999997 263.3 132.99999999999997 262.90000000000003 133.2 262.70000000000005 L 133.2 262.6 L 133.1 262.6 C 132 269.90000000000003 130.29999999999998 277.1 128.9 284.40000000000003 C 126.60000000000001 295.50000000000006 124.10000000000001 306.50000000000006 121 317.40000000000003 C 119 324.20000000000005 116.9 331.00000000000006 113.6 337.3 C 112.5 339.5 110.69999999999999 341.3 108.69999999999999 342.90000000000003 L 108.69999999999999 343.00000000000006 L 108.69999999999999 342.90000000000003 L 108.49999999999999 342.90000000000003 C 107.89999999999999 342.90000000000003 107.39999999999999 342.50000000000006 106.79999999999998 342.1 C 104.69999999999999 340.8 103.59999999999998 338.5 102.29999999999998 336.40000000000003 L 102.19999999999999 336.40000000000003 L 102.29999999999998 336.40000000000003 C 96.29999999999998 322.70000000000005 95.59999999999998 307.50000000000006 91.89999999999998 293.1 C 89.99999999999997 285.90000000000003 87.69999999999997 278.8 84.19999999999997 272.20000000000005 C 82.09999999999998 268.20000000000005 79.49999999999997 264.40000000000003 76.09999999999998 261.40000000000003 L 76.09999999999998 261.40000000000003 L 76.09999999999998 261.40000000000003 C 73.6 259.4 70.7 257.8 67.5 257.1 L 67.5 257.1 L 67.5 257.1 L 67.5 257.1 L 67.5 257.1 C 70.6 257.90000000000003 73.5 259.5 76 261.6 L 76 261.5 L 76 261.5 C 79.4 264.5 82 268.3 84.1 272.3 C 87.5 278.90000000000003 89.89999999999999 286 91.8 293.2 C 95.5 307.5 96.2 322.7 102.2 336.5 L 102.2 336.5 L 102.2 336.5 C 103.5 338.6 104.7 340.9 106.8 342.2 C 107.3 342.5 107.89999999999999 343 108.5 343 L 108.7 343 L 108.7 343 L 108.7 343 C 110.7 341.5 112.5 339.6 113.60000000000001 337.4 C 116.9 331.09999999999997 119.00000000000001 324.29999999999995 121.00000000000001 317.5 C 124.10000000000001 306.6 126.60000000000001 295.5 128.9 284.5 C 130.4 277.2 132.1 270 133.1 262.7 L 133.1 262.5 L 133 262.6 C 132.8 262.8 132.4 263.1 132.2 263.3 L 132.2 263.40000000000003 L 132.29999999999998 263.40000000000003 C 130.39999999999998 261.00000000000006 127.89999999999998 259.00000000000006 125.09999999999998 257.90000000000003 L 125.09999999999998 258.00000000000006 L 125.09999999999998 257.90000000000003 C 123.09999999999998 257.00000000000006 120.99999999999999 257.20000000000005 118.99999999999999 256.90000000000003 L 118.99999999999999 256.90000000000003 L 71 256.90000000000003 C 69.8 256.8 68.7 256.9 67.5 257.1 L 67.5 257.1 L 67.5 257.1 z" stroke-linecap="round" />
</g>
		<g transform="matrix(1 0 0 1 135.45 49.98)" id="XMLID_12_"  >
<path style="stroke: none; stroke-width: 1; stroke-dasharray: none; stroke-linecap: butt; stroke-dashoffset: 0; stroke-linejoin: miter; stroke-miterlimit: 4; fill: rgb(235,112,119); fill-rule: nonzero; opacity: 1;" vector-effect="non-scaling-stroke"  transform=" translate(-385.5, -299.93)" d="M 370 261.7 C 372.8 258.59999999999997 376.9 256.59999999999997 381.1 256.8 L 417.20000000000005 256.8 C 422.20000000000005 256.90000000000003 427.30000000000007 256.6 432.30000000000007 256.90000000000003 C 430.80000000000007 257.90000000000003 429.00000000000006 258.3 427.4000000000001 259.1 C 421.9000000000001 261.6 417.2000000000001 265.8 414.2000000000001 271 C 409.4000000000001 279.4 407.7000000000001 289 406.3000000000001 298.4 C 404.90000000000015 307.59999999999997 404.90000000000015 317.2 401.90000000000015 326.2 C 399.90000000000015 332.5 396.8000000000001 338.8 391.50000000000017 343 C 374.90000000000015 343.2 358.40000000000015 343 341.90000000000015 343.1 C 340.8000000000001 343.1 339.70000000000016 343.1 338.70000000000016 342.90000000000003 C 341.10000000000014 341.8 343.20000000000016 340.3 344.8000000000002 338.20000000000005 C 348.1000000000002 333.90000000000003 350.20000000000016 328.80000000000007 351.8000000000002 323.6 C 354.00000000000017 316.6 355.70000000000016 309.5 356.9000000000002 302.20000000000005 C 358.4000000000002 293.00000000000006 360.2000000000002 283.70000000000005 363.0000000000002 274.80000000000007 C 363.9000000000002 272.30000000000007 364.5000000000002 269.6000000000001 366.10000000000025 267.4000000000001 C 367.4 265.6 368.3 263.3 370 261.7 z" stroke-linecap="round" />
</g>
		<g transform="matrix(1 0 0 1 135.5 50.05)" id="XMLID_13_"  >
<path style="stroke: none; stroke-width: 1; stroke-dasharray: none; stroke-linecap: butt; stroke-dashoffset: 0; stroke-linejoin: miter; stroke-miterlimit: 4; fill: rgb(235,112,119); fill-rule: nonzero; opacity: 1;" vector-effect="non-scaling-stroke"  transform=" translate(-385.55, -300)" d="M 370 261.7 L 370 261.7 C 372.7 258.8 376.6 256.8 380.6 256.8 C 380.8 256.8 380.90000000000003 256.8 381.1 256.8 L 381.1 256.8 L 417.20000000000005 256.8 C 418.00000000000006 256.8 418.80000000000007 256.8 419.6 256.8 C 421.8 256.8 424.1 256.8 426.40000000000003 256.8 C 428.40000000000003 256.8 430.40000000000003 256.8 432.40000000000003 257 L 432.40000000000003 256.9 L 432.40000000000003 256.79999999999995 C 430.90000000000003 257.79999999999995 429.1 258.19999999999993 427.50000000000006 258.99999999999994 L 427.50000000000006 259.09999999999997 L 427.50000000000006 258.99999999999994 C 422.00000000000006 261.49999999999994 417.30000000000007 265.69999999999993 414.30000000000007 270.99999999999994 C 409.50000000000006 279.3999999999999 407.80000000000007 288.99999999999994 406.4000000000001 298.3999999999999 C 405.0000000000001 307.69999999999993 405.0000000000001 317.19999999999993 402.0000000000001 326.19999999999993 C 400.0000000000001 332.49999999999994 396.9000000000001 338.79999999999995 391.60000000000014 342.8999999999999 L 391.60000000000014 342.99999999999994 L 391.60000000000014 342.8999999999999 C 384.40000000000015 342.99999999999994 377.3000000000001 342.99999999999994 370.10000000000014 342.99999999999994 C 363.40000000000015 342.99999999999994 356.60000000000014 342.99999999999994 349.90000000000015 342.99999999999994 C 347.20000000000016 342.99999999999994 344.60000000000014 342.99999999999994 342.00000000000017 342.99999999999994 C 341.70000000000016 342.99999999999994 341.40000000000015 342.99999999999994 341.1000000000002 342.99999999999994 C 340.3000000000002 342.99999999999994 339.6000000000002 342.99999999999994 338.8000000000002 342.79999999999995 L 338.8000000000002 342.9 L 338.8000000000002 343 C 341.20000000000016 341.9 343.4000000000002 340.3 344.9000000000002 338.3 C 348.3000000000002 334 350.3000000000002 328.90000000000003 352.0000000000002 323.7 C 354.2000000000002 316.7 355.9000000000002 309.59999999999997 357.10000000000025 302.3 C 358.60000000000025 293.1 360.40000000000026 283.8 363.2000000000003 274.90000000000003 L 363.10000000000025 274.90000000000003 L 363.2000000000003 274.90000000000003 C 364.10000000000025 272.40000000000003 364.7000000000003 269.70000000000005 366.3000000000003 267.6 C 367.5 265.6 368.4 263.4 370 261.7 L 370 261.7 L 370 261.7 L 370 261.7 L 370 261.7 C 368.3 263.3 367.4 265.59999999999997 366.1 267.5 C 364.5 269.7 363.90000000000003 272.4 363 274.9 L 363 274.9 C 360.2 283.79999999999995 358.4 293.09999999999997 356.9 302.29999999999995 C 355.7 309.49999999999994 354.09999999999997 316.69999999999993 351.79999999999995 323.69999999999993 C 350.09999999999997 328.8999999999999 348.09999999999997 333.99999999999994 344.79999999999995 338.29999999999995 C 343.19999999999993 340.4 341.09999999999997 341.9 338.69999999999993 342.99999999999994 L 338.49999999999994 343.09999999999997 L 338.69999999999993 343.09999999999997 C 339.49999999999994 343.29999999999995 340.19999999999993 343.29999999999995 340.99999999999994 343.29999999999995 C 341.29999999999995 343.29999999999995 341.59999999999997 343.29999999999995 341.8999999999999 343.29999999999995 C 344.49999999999994 343.29999999999995 347.19999999999993 343.29999999999995 349.7999999999999 343.29999999999995 C 356.4999999999999 343.29999999999995 363.1999999999999 343.29999999999995 369.9999999999999 343.29999999999995 C 377.1999999999999 343.29999999999995 384.2999999999999 343.29999999999995 391.4999999999999 343.19999999999993 L 391.4999999999999 343.19999999999993 L 391.4999999999999 343.19999999999993 C 396.7999999999999 338.99999999999994 399.89999999999986 332.69999999999993 401.9999999999999 326.3999999999999 C 404.9999999999999 317.3999999999999 404.9999999999999 307.7999999999999 406.39999999999986 298.5999999999999 C 407.79999999999984 289.19999999999993 409.4999999999999 279.5999999999999 414.29999999999984 271.19999999999993 C 417.29999999999984 265.99999999999994 421.99999999999983 261.79999999999995 427.49999999999983 259.29999999999995 L 427.49999999999983 259.29999999999995 L 427.49999999999983 259.29999999999995 C 429.09999999999985 258.49999999999994 430.8999999999998 258.09999999999997 432.3999999999998 256.99999999999994 L 432.5999999999998 256.8999999999999 L 432.3999999999998 256.8999999999999 C 430.3999999999998 256.7999999999999 428.3999999999998 256.69999999999993 426.3999999999998 256.69999999999993 C 424.0999999999998 256.69999999999993 421.8999999999998 256.69999999999993 419.5999999999998 256.69999999999993 C 418.7999999999998 256.69999999999993 417.9999999999998 256.69999999999993 417.1999999999998 256.69999999999993 L 381.0999999999998 256.69999999999993 L 381.0999999999998 256.79999999999995 L 381.0999999999998 256.69999999999993 C 380.8999999999998 256.69999999999993 380.7999999999998 256.69999999999993 380.5999999999998 256.69999999999993 C 376.5 256.7 372.6 258.6 370 261.7 L 370 261.7 L 370 261.7 L 370 261.7 z" stroke-linecap="round" />
</g>
</g>
</g>
</svg>