<svg id="night-time" version="1.1" viewBox="0 0 42.098 39.995" xmlns="http://www.w3.org/2000/svg">
  <title>night-time</title>
  <path d="m33.754 0.01018q-2.156-0.094-4.031 0.68t-3.281 2.156-2.203 3.211q-0.797 1.829-0.797 3.938 0 2.063 0.773 3.867t2.156 3.188 3.188 2.156 3.867 0.773q1.875 0 3.516-0.633t2.953-1.758 2.203-2.625q-2.25-0.047-4.102-0.984t-3.164-2.484q-1.312-1.547-1.945-3.469t-0.445-3.984q0.188-2.062 1.313-4.031z"/>
  <path d="m4 31.995h27c0.547 0 1 0.453 1 1v7h-4v-4h-24v4h-4v-19c0-0.547 0.453-1 1-1h2c0.547 0 1 0.453 1 1zm9-5c0-2.203-1.797-4-4-4s-4 1.797-4 4 1.797 4 4 4 4-1.797 4-4zm19 4v-1c0-3.313-2.688-6-6-6h-11c-0.547 0-1 0.453-1 1v6z"/>
  <path d="m1.7413 8.8166-0.36912-0.44042-0.57207 0.054389 0.3048-0.48715-0.2285-0.52726 0.55749 0.13935 0.43084-0.38025 0.03975 0.57327 0.49478 0.29225-0.53293 0.21495z" stroke-linecap="round" stroke-width="4"/>
  <path d="m13.837 12.793 0.07561 0.58896 0.52804 0.27161-0.53677 0.25391-0.09514 0.58612-0.40735-0.43204-0.58684 0.09064 0.28502-0.52092-0.26754-0.53011 0.5835 0.11009z" stroke-linecap="round" stroke-width="4"/>
  <path d="m21.922 5.935-0.52895-0.24844-0.50453 0.29489 0.07282-0.57984-0.43637-0.38871 0.57396-0.10992 0.23484-0.53513 0.2819 0.5119 0.58151 0.05798-0.39974 0.42629z" stroke-linecap="round" stroke-width="4"/>
  <path d="m19.757 2.2195-0.41645-0.16213-0.36965 0.25115 0.0255-0.44617-0.35308-0.27395 0.43221-0.11362 0.15143-0.42046 0.24162 0.37595 0.44667 0.014093-0.28288 0.34596z" stroke-linecap="round" stroke-width="4"/>
  <path d="m9.1894 4.1033-0.23725-0.22318-0.31835 0.068919 0.13894-0.2946-0.16392-0.28147 0.32312 0.041102 0.21704-0.24288 0.06076 0.32001 0.29806 0.13136-0.28557 0.15667z" stroke-linecap="round" stroke-width="4"/>
  <path d="m7.8273 9.5548-0.19219-0.074711-0.1705 0.11597 0.011664-0.20587-0.16298-0.12632 0.1994-0.052524 0.069775-0.19404 0.11157 0.17341 0.2061 0.0064-0.13045 0.1597z" stroke-linecap="round" stroke-width="4"/>
  <path d="m19.571 13.582 0.0088-0.2795-0.22525-0.1657 0.26854-0.07799 0.08799-0.26543 0.15716 0.23129 0.27963 0.0017-0.17141 0.22094 0.08483 0.26646-0.2631-0.09474z" stroke-linecap="round" stroke-width="4"/>
  <path d="m15.611 7.6313-0.42923-0.067544-0.29898 0.3153-0.0684-0.42909-0.39225-0.18691 0.38696-0.19765 0.056551-0.43081 0.30755 0.30694 0.4272-0.079345-0.19688 0.38735z" stroke-linecap="round" stroke-width="4"/>
  <path d="m17.215 18.198-0.03194-0.45974-0.39683-0.23432 0.42736-0.17244 0.10022-0.44982 0.29607 0.35316 0.45877-0.04368-0.24439 0.39071 0.18331 0.42282-0.44711-0.11169z" stroke-linecap="round" stroke-width="4"/>
  <path d="m6.842 15.066 0.3483-0.1719 0.055853-0.38438 0.27112 0.27814 0.38282-0.06566-0.18074 0.3438 0.18074 0.3438-0.38282-0.06566-0.27112 0.27814-0.055853-0.38438z" stroke-linecap="round" stroke-width="4"/>
  <path d="m1.739 13.731 0.053262 0.1282 0.13581 0.02881-0.10547 0.09027 0.014571 0.13806-0.11845-0.07241-0.1268 0.05652 0.032267-0.13503-0.092939-0.10313 0.13839-0.01104z" stroke-linecap="round" stroke-width="4"/>
  <path d="m3.07 2.2613-0.088557-0.3733-0.35772-0.13868 0.32767-0.19958 0.02135-0.38307 0.29107 0.24996 0.37092-0.09807-0.14778 0.35406 0.20789 0.32246-0.3824-0.031134z" stroke-linecap="round" stroke-width="4"/>
  <path d="m15.236 1.7206-0.31887-0.2166-0.3592 0.13988 0.10746-0.3702-0.24404-0.2984 0.38529-0.012193 0.20838-0.3243 0.13066 0.36266 0.37282 0.097967-0.30454 0.23633z" stroke-linecap="round" stroke-width="4"/>
</svg>
