<svg id="night-time" version="1.1" width="42.098" height="39.995" viewBox="0 0 42.098 39.995" xmlns="http://www.w3.org/2000/svg">
  <title>night-time</title>
  <path d="m33.754 0.01018q-2.156-0.094-4.031 0.68-1.875 0.774-3.281 2.156t-2.203 3.211q-0.797 1.829-0.797 3.938 0 2.063 0.773 3.867t2.156 3.188 3.188 2.156 3.867 0.773q1.875 0 3.516-0.633t2.953-1.758 2.203-2.625q-2.25-0.047-4.102-0.984t-3.164-2.484q-1.312-1.547-1.945-3.469t-0.445-3.984q0.188-2.062 1.313-4.031z"/>
  <path d="m4 31.995h27c0.547 0 1 0.453 1 1v7h-4v-4h-24v4h-4v-19c0-0.547 0.453-1 1-1h2c0.547 0 1 0.453 1 1zm9-5c0-2.203-1.797-4-4-4s-4 1.797-4 4 1.797 4 4 4 4-1.797 4-4zm19 4v-1c0-3.313-2.688-6-6-6h-11c-0.547 0-1 0.453-1 1v6z"/>
</svg>
