<?xml version="1.0" encoding="UTF-8" standalone="no"?>
<svg
   xmlns:dc="http://purl.org/dc/elements/1.1/"
   xmlns:cc="http://creativecommons.org/ns#"
   xmlns:rdf="http://www.w3.org/1999/02/22-rdf-syntax-ns#"
   xmlns:svg="http://www.w3.org/2000/svg"
   xmlns="http://www.w3.org/2000/svg"
   xmlns:xlink="http://www.w3.org/1999/xlink"
   xmlns:sodipodi="http://sodipodi.sourceforge.net/DTD/sodipodi-0.dtd"
   xmlns:inkscape="http://www.inkscape.org/namespaces/inkscape"
   width="125.62431mm"
   height="30.565838mm"
   viewBox="0 0 125.62431 30.565838"
   version="1.1"
   id="svg75"
   inkscape:version="1.0.1 (1.0.1+r74)"
   sodipodi:docname="Python_Logo.svg">
  <defs
     id="defs69">
    <linearGradient
       id="linearGradient2795">
      <stop
         style="stop-color:#b8b8b8;stop-opacity:0.49803922"
         offset="0"
         id="stop2797" />
      <stop
         style="stop-color:#7f7f7f;stop-opacity:0"
         offset="1"
         id="stop2799" />
    </linearGradient>
    <linearGradient
       id="linearGradient2787">
      <stop
         style="stop-color:#7f7f7f;stop-opacity:0.5"
         offset="0"
         id="stop2789" />
      <stop
         style="stop-color:#7f7f7f;stop-opacity:0"
         offset="1"
         id="stop2791" />
    </linearGradient>
    <linearGradient
       id="linearGradient3676">
      <stop
         style="stop-color:#b2b2b2;stop-opacity:0.5"
         offset="0"
         id="stop3678" />
      <stop
         style="stop-color:#b3b3b3;stop-opacity:0"
         offset="1"
         id="stop3680" />
    </linearGradient>
    <linearGradient
       id="linearGradient3236">
      <stop
         style="stop-color:#f4f4f4;stop-opacity:1"
         offset="0"
         id="stop3244" />
      <stop
         style="stop-color:#ffffff;stop-opacity:1"
         offset="1"
         id="stop3240" />
    </linearGradient>
    <linearGradient
       id="linearGradient4671">
      <stop
         style="stop-color:#ffd43b;stop-opacity:1"
         offset="0"
         id="stop4673" />
      <stop
         style="stop-color:#ffe873;stop-opacity:1"
         offset="1"
         id="stop4675" />
    </linearGradient>
    <linearGradient
       id="linearGradient4689">
      <stop
         style="stop-color:#5a9fd4;stop-opacity:1"
         offset="0"
         id="stop4691" />
      <stop
         style="stop-color:#306998;stop-opacity:1"
         offset="1"
         id="stop4693" />
    </linearGradient>
    <linearGradient
       x1="224.23996"
       y1="144.75717"
       x2="-65.308502"
       y2="144.75717"
       id="linearGradient2987"
       xlink:href="#linearGradient4671"
       gradientUnits="userSpaceOnUse"
       gradientTransform="translate(100.2702,99.61116)" />
    <linearGradient
       x1="172.94208"
       y1="77.475983"
       x2="26.670298"
       y2="76.313133"
       id="linearGradient2990"
       xlink:href="#linearGradient4689"
       gradientUnits="userSpaceOnUse"
       gradientTransform="translate(100.2702,99.61116)" />
    <linearGradient
       x1="224.23996"
       y1="144.75717"
       x2="-65.308502"
       y2="144.75717"
       id="linearGradient2255"
       xlink:href="#linearGradient4671"
       gradientUnits="userSpaceOnUse"
       gradientTransform="matrix(0.562541,0,0,0.567972,-11.5974,-7.60954)" />
    <linearGradient
       x1="172.94208"
       y1="76.176224"
       x2="26.670298"
       y2="76.313133"
       id="linearGradient2258"
       xlink:href="#linearGradient4689"
       gradientUnits="userSpaceOnUse"
       gradientTransform="matrix(0.562541,0,0,0.567972,-11.5974,-7.60954)" />
    <radialGradient
       cx="61.518883"
       cy="132.28575"
       r="29.036913"
       fx="61.518883"
       fy="132.28575"
       id="radialGradient2801"
       xlink:href="#linearGradient2795"
       gradientUnits="userSpaceOnUse"
       gradientTransform="matrix(1,0,0,0.177966,0,108.7434)" />
    <linearGradient
       x1="150.96111"
       y1="192.35176"
       x2="112.03144"
       y2="137.27299"
       id="linearGradient1475"
       xlink:href="#linearGradient4671"
       gradientUnits="userSpaceOnUse"
       gradientTransform="matrix(0.14883897,0,0,0.15027592,6.5488227,104.23521)" />
    <linearGradient
       x1="26.648937"
       y1="20.603781"
       x2="135.66525"
       y2="114.39767"
       id="linearGradient1478"
       xlink:href="#linearGradient4689"
       gradientUnits="userSpaceOnUse"
       gradientTransform="matrix(0.14883897,0,0,0.15027592,6.5488227,104.23521)" />
    <radialGradient
       cx="61.518883"
       cy="132.28575"
       r="29.036913"
       fx="61.518883"
       fy="132.28575"
       id="radialGradient1480"
       xlink:href="#linearGradient2795"
       gradientUnits="userSpaceOnUse"
       gradientTransform="matrix(0,-0.06348597,0.27904758,1.0031798e-7,-11.630613,145.02453)" />
  </defs>
  <sodipodi:namedview
     id="base"
     pagecolor="#ffffff"
     bordercolor="#666666"
     borderopacity="1.0"
     inkscape:pageopacity="0.0"
     inkscape:pageshadow="2"
     inkscape:zoom="2.8"
     inkscape:cx="227.71954"
     inkscape:cy="57.129825"
     inkscape:document-units="mm"
     inkscape:current-layer="layer1"
     inkscape:document-rotation="0"
     showgrid="false"
     fit-margin-top="0"
     fit-margin-left="0"
     fit-margin-right="0"
     fit-margin-bottom="0"
     inkscape:pagecheckerboard="true"
     inkscape:window-width="1920"
     inkscape:window-height="1010"
     inkscape:window-x="1440"
     inkscape:window-y="0"
     inkscape:window-maximized="1" />
  <metadata
     id="metadata72">
    <rdf:RDF>
      <cc:Work
         rdf:about="">
        <dc:format>image/svg+xml</dc:format>
        <dc:type
           rdf:resource="http://purl.org/dc/dcmitype/StillImage" />
        <dc:title></dc:title>
      </cc:Work>
    </rdf:RDF>
  </metadata>
  <g
     inkscape:label="Layer 1"
     inkscape:groupmode="layer"
     id="layer1"
     transform="translate(-10.515223,-106.50188)">
    <path
       id="path46"
       style="fill:#ffffff;fill-opacity:1;stroke-width:0.264583"
       d="m 57.881478,122.02439 c 0,-3.85291 -1.098618,-5.83094 -3.295856,-5.93925 -0.874255,-0.0413 -1.727875,0.098 -2.558288,0.42036 -0.662781,0.23726 -1.108932,0.47195 -1.343615,0.70921 v 9.19642 c 1.405509,0.88199 2.653707,1.29203 3.74201,1.22756 2.302973,-0.15215 3.455749,-2.02187 3.455749,-5.6143 z m 2.710442,0.15989 c 0,1.9574 -0.459047,3.58212 -1.3823,4.87415 -1.028988,1.46225 -2.455129,2.21529 -4.278423,2.25656 -1.374563,0.0438 -2.790388,-0.38684 -4.247478,-1.28946 v 8.35827 l -2.357131,-0.84073 v -18.55273 c 0.386837,-0.47452 0.884569,-0.88199 1.488036,-1.22756 1.402932,-0.81752 3.107594,-1.23789 5.113993,-1.25852 l 0.03353,0.0335 c 1.83361,-0.0232 3.246858,0.72983 4.239741,2.25655 0.92583,1.40035 1.390036,3.19528 1.390036,5.38994 z" />
    <path
       id="path48"
       style="fill:#ffffff;fill-opacity:1;stroke-width:0.264583"
       d="m 74.997752,127.66964 c 0,2.62534 -0.263048,4.44347 -0.789146,5.45441 -0.52868,1.01093 -1.534456,1.81814 -3.019914,2.41902 -1.204355,0.47452 -2.506708,0.73241 -3.90448,0.77626 l -0.389417,-1.48546 c 1.420982,-0.19342 2.421604,-0.38684 3.001859,-0.58026 1.142461,-0.38683 1.926453,-0.97998 2.357131,-1.77429 0.345575,-0.64731 0.515784,-1.88261 0.515784,-3.71106 v -0.61378 c -1.611823,0.73241 -3.301016,1.09604 -5.067572,1.09604 -1.160513,0 -2.184345,-0.36363 -3.066333,-1.09604 -0.990307,-0.79689 -1.485458,-1.80783 -1.485458,-3.03281 v -9.8102 l 2.35713,-0.80721 v 9.87468 c 0,1.05478 0.340418,1.86714 1.021252,2.43708 0.680834,0.56994 1.562825,0.8433 2.643391,0.82267 1.080567,-0.0232 2.2385,-0.441 3.468643,-1.25851 v -11.52002 h 2.35713 z" />
    <path
       id="path50"
       style="fill:#ffffff;fill-opacity:1;stroke-width:0.264583"
       d="m 84.199331,129.18604 c -0.281101,0.0232 -0.538993,0.0335 -0.776253,0.0335 -1.333302,0 -2.372606,-0.31721 -3.115334,-0.9542 -0.740151,-0.63699 -1.111512,-1.51641 -1.111512,-2.63823 V 116.343 h -1.614403 v -1.48287 h 1.614403 v -3.93801 l 2.354551,-0.83815 v 4.77616 h 2.648548 v 1.48287 h -2.648548 v 9.21963 c 0,0.88457 0.23726,1.51125 0.711782,1.87745 0.407469,0.30174 1.054777,0.47453 1.936766,0.51837 z" />
    <path
       id="path52"
       style="fill:#ffffff;fill-opacity:1;stroke-width:0.264583"
       d="m 98.471059,128.99262 h -2.357131 v -9.09842 c 0,-0.92583 -0.21663,-1.72272 -0.647306,-2.38808 -0.497731,-0.75304 -1.188884,-1.12956 -2.076029,-1.12956 -1.080569,0 -2.431923,0.56994 -4.054057,1.70982 v 10.90624 h -2.357133 v -21.74801 l 2.357133,-0.74273 v 9.90563 c 1.506088,-1.09604 3.151434,-1.64535 4.938623,-1.64535 1.248198,0 2.259134,0.42036 3.032807,1.25851 0.776256,0.83815 1.163093,1.88261 1.163093,3.1308 z" />
    <path
       id="path54"
       style="fill:#ffffff;fill-opacity:1;stroke-width:0.264583"
       d="m 110.99944,121.65302 c 0,-1.4803 -0.2811,-2.7027 -0.84073,-3.6698 -0.66536,-1.17856 -1.6995,-1.80008 -3.09728,-1.86456 -2.58407,0.14958 -3.87353,2.00125 -3.87353,5.54984 0,1.62729 0.26821,2.98638 0.80978,4.07726 0.69115,1.39004 1.72788,2.07603 3.11018,2.05282 2.59439,-0.0206 3.89158,-2.06829 3.89158,-6.14556 z m 2.5815,0.0155 c 0,2.10697 -0.53899,3.86064 -1.6144,5.26099 -1.18373,1.56798 -2.81876,2.35455 -4.90511,2.35455 -2.06829,0 -3.68011,-0.78657 -4.8432,-2.35455 -1.05478,-1.40035 -1.58088,-3.15402 -1.58088,-5.26099 0,-1.98061 0.56994,-3.64659 1.70982,-5.0031 1.20436,-1.43904 2.78781,-2.16114 4.74521,-2.16114 1.9574,0 3.55117,0.7221 4.77874,2.16114 1.13987,1.35651 1.70982,3.02249 1.70982,5.0031 z" />
    <path
       id="path56"
       style="fill:#ffffff;fill-opacity:1;stroke-width:0.264583"
       d="m 127.09446,128.99262 h -2.35713 v -9.6142 c 0,-1.05478 -0.3172,-1.87745 -0.95162,-2.47061 -0.63441,-0.59057 -1.48029,-0.87683 -2.53507,-0.85362 -1.11925,0.0206 -2.18435,0.38684 -3.19528,1.09604 v 11.84239 h -2.35713 v -12.1338 c 1.35651,-0.98773 2.60471,-1.63246 3.74458,-1.93419 1.07542,-0.2811 2.02446,-0.42037 2.84198,-0.42037 0.55962,0 1.08572,0.0542 1.58087,0.16247 0.92583,0.21406 1.67887,0.61121 2.25913,1.19405 0.64731,0.64472 0.96967,1.4184 0.96967,2.3236 z" />
    <path
       id="path1948"
       style="fill:url(#linearGradient1478);fill-opacity:1;stroke-width:0.264583"
       d="m 25.045818,107.33171 c -1.212758,0.006 -2.370915,0.10906 -3.389974,0.28938 -3.002019,0.53036 -3.54707,1.64045 -3.54707,3.68764 v 2.70371 h 7.094141 v 0.90123 h -7.094141 -2.66237 c -2.061755,0 -3.867086,1.23924 -4.431771,3.59668 -0.651356,2.70218 -0.680247,4.38839 0,7.2099 0.504277,2.10022 1.708559,3.59668 3.770313,3.59668 h 2.439127 v -3.24115 c 0,-2.34153 2.025953,-4.40696 4.431771,-4.40696 h 7.085873 c 1.972455,0 3.547071,-1.62406 3.54707,-3.60495 v -6.75514 c 0,-1.92256 -1.621891,-3.36677 -3.54707,-3.68764 -1.218668,-0.20286 -2.483141,-0.29502 -3.695899,-0.28938 z m -3.836458,2.17454 c 0.732776,0 1.331185,0.60818 1.331185,1.35599 -1e-6,0.74516 -0.598409,1.34772 -1.331185,1.34772 -0.735403,0 -1.331185,-0.60256 -1.331185,-1.34772 0,-0.74781 0.595782,-1.35599 1.331185,-1.35599 z" />
    <path
       id="path1950"
       style="fill:url(#linearGradient1475);fill-opacity:1;stroke-width:0.264583"
       d="m 33.173487,114.91367 v 3.1502 c 0,2.4423 -2.070601,4.49791 -4.43177,4.49791 h -7.085873 c -1.940939,0 -3.54707,1.66119 -3.54707,3.60495 v 6.75515 c 0,1.92255 1.671793,3.05337 3.54707,3.60494 2.245607,0.6603 4.399025,0.77963 7.085873,0 1.785978,-0.5171 3.547071,-1.55776 3.54707,-3.60494 v -2.70371 h -7.085872 v -0.90124 h 7.085872 3.547071 c 2.061755,0 2.83005,-1.43812 3.547068,-3.59668 0.740656,-2.22221 0.709141,-4.35922 0,-7.2099 -0.50953,-2.05249 -1.482691,-3.59668 -3.547068,-3.59668 z m -3.985286,17.10697 c 0.735403,0 1.331185,0.60257 1.331185,1.34772 -1e-6,0.7478 -0.595782,1.35599 -1.331185,1.35599 -0.732777,0 -1.331185,-0.60819 -1.331185,-1.35599 10e-7,-0.74515 0.598407,-1.34772 1.331185,-1.34772 z" />
    <path
       id="text3004"
       style="font-style:normal;font-weight:normal;font-size:15.1645px;line-height:125%;font-family:'Bitstream Vera Sans';fill:#ffffff;fill-opacity:1;stroke:none;stroke-width:0.264583px;stroke-linecap:butt;stroke-linejoin:miter;stroke-opacity:1"
       d="m 131.68461,112.75868 h 0.41326 v -2.59192 h 0.979 v -0.30894 h -2.37126 v 0.30894 h 0.979 v 2.59192 m 1.75869,0 h 0.35308 v -2.36723 l 0.76634,2.36694 h 0.39309 l 0.79855,-2.35892 v 2.35921 h 0.38518 v -2.90086 h -0.50956 l -0.87268,2.48519 -0.74426,-2.48519 h -0.56974 v 2.90086" />
  </g>
</svg>
