<?xml version="1.0" encoding="UTF-8" standalone="no"?>
<svg
   width="704.62885"
   height="102"
   viewBox="0 0 704.62885 102"
   version="1.1"
   id="svg34"
   sodipodi:docname="squarespace-logo-horizontal-white-mod.svg"
   inkscape:version="1.1 (c68e22c387, 2021-05-23)"
   xmlns:inkscape="http://www.inkscape.org/namespaces/inkscape"
   xmlns:sodipodi="http://sodipodi.sourceforge.net/DTD/sodipodi-0.dtd"
   xmlns:xlink="http://www.w3.org/1999/xlink"
   xmlns="http://www.w3.org/2000/svg"
   xmlns:svg="http://www.w3.org/2000/svg"
   xmlns:rdf="http://www.w3.org/1999/02/22-rdf-syntax-ns#"
   xmlns:cc="http://creativecommons.org/ns#"
   xmlns:dc="http://purl.org/dc/elements/1.1/">
  <sodipodi:namedview
     id="namedview36"
     pagecolor="#ffffff"
     bordercolor="#666666"
     borderopacity="1.0"
     inkscape:pageshadow="2"
     inkscape:pageopacity="0.0"
     inkscape:pagecheckerboard="0"
     showgrid="false"
     inkscape:zoom="1.2762364"
     inkscape:cx="317.7311"
     inkscape:cy="50.931003"
     inkscape:window-width="1920"
     inkscape:window-height="1018"
     inkscape:window-x="1432"
     inkscape:window-y="-8"
     inkscape:window-maximized="1"
     inkscape:current-layer="squarespace-logo-horizontal-white"
     fit-margin-top="0"
     fit-margin-left="0"
     fit-margin-right="0"
     fit-margin-bottom="0" />
  <!-- Generator: Sketch 52.2 (67145) - http://www.bohemiancoding.com/sketch -->
  <title
     id="title2">squarespace-logo-horizontal-white</title>
  <desc
     id="desc4">Created with Sketch.</desc>
  <defs
     id="defs7">
    <polygon
       id="path-1"
       points="33.628833,0.39638333 33.628833,50.880717 0.44100833,50.880717 0.44100833,0.39638333 " />
  </defs>
  <g
     id="squarespace-logo-horizontal-white"
     stroke="none"
     stroke-width="1"
     fill="none"
     fill-rule="evenodd"
     transform="translate(-62,-47)">
    <g
       transform="translate(62,47)"
       id="squarespace-logo"
       style="fill:#ffffff">
      <g
         id="g30"
         style="fill:#ffffff">
        <path
           d="M 26.154593,54 65.652174,14.018788 c 2.683526,-2.716385 6.254087,-4.2100416 10.06007,-4.2100416 3.80318,0 7.373741,1.4922386 10.054464,4.2086236 L 88.844005,17.132347 95,10.900974 91.922703,7.7859972 C 87.599634,3.4099936 81.843015,1 75.709441,1 69.57867,1.0014185 63.82065,3.4114121 59.49758,7.7888342 L 20,47.768628 Z"
           id="Fill-1"
           fill="#FFFFFF"
           style="fill:#ffffff" />
        <path
           d="M 79,27.299238 72.814881,21.077097 33.131848,60.999081 c -5.572661,5.606018 -14.63985,5.607434 -20.211103,0.0028 -5.5726609,-5.606018 -5.5726609,-14.728898 0,-20.334916 L 47.163465,6.220725 40.978346,0 6.7370344,34.446273 c -8.9827125,9.036482 -8.9827125,23.741301 0,32.776366 C 11.080556,71.59216 16.864409,74 23.024185,74 c 6.161183,0 11.947852,-2.409256 16.291374,-6.778777 z"
           id="Fill-3"
           fill="#FFFFFF"
           style="fill:#ffffff" />
        <path
           d="M 118.26188,34.776074 C 113.91975,30.406469 108.13587,28 101.97325,28 95.812038,28.0014 90.025343,30.407886 85.681802,34.778907 L 46,74.700239 52.18233,80.9225 91.866948,40.999751 c 5.574094,-5.606125 14.639912,-5.604708 20.211192,-0.0014 2.69483,2.710996 4.17881,6.319992 4.17881,10.165528 0,3.846951 -1.48398,7.457364 -4.17881,10.16836 L 77.836677,95.779156 84.021823,102 118.26188,67.554484 c 8.98416,-9.036655 8.98416,-23.741756 0,-32.77841"
           id="Fill-5"
           fill="#FFFFFF"
           style="fill:#ffffff" />
        <path
           d="M 98.845522,48 59.348679,87.981212 c -5.547719,5.612916 -14.570644,5.615753 -20.11556,0.0014 L 36.15588,84.867653 30,91.099026 33.077239,94.214003 C 37.400228,98.590006 43.156739,101 49.2916,101 55.422256,100.999 61.178768,98.588588 65.503158,94.211166 L 105,54.231372 Z"
           id="Fill-7"
           fill="#FFFFFF"
           style="fill:#ffffff" />
        <path
           d="m 161.47508,61.410505 c 0.50949,2.551138 1.70342,4.548364 3.57899,5.987394 1.87418,1.441885 4.34042,2.161401 7.39873,2.161401 3.00932,0 5.33559,-0.708095 6.98022,-2.125711 1.64463,-1.416188 2.46624,-3.282074 2.46624,-5.597656 0,-1.133522 -0.21975,-2.09002 -0.65925,-2.869495 -0.4409,-0.779475 -1.05396,-1.440458 -1.84059,-1.984377 -0.78942,-0.541064 -1.7608,-1.00361 -2.91833,-1.380499 -1.15754,-0.378316 -2.45505,-0.779474 -3.89112,-1.204902 l -3.74976,-1.062141 c -2.22409,-0.613873 -4.21584,-1.357657 -5.97524,-2.232782 -1.7608,-0.873697 -3.26546,-1.901575 -4.51538,-3.082208 -1.24992,-1.180633 -2.2003,-2.53829 -2.84836,-4.074398 -0.64805,-1.53468 -0.97278,-3.319192 -0.97278,-5.349252 0,-2.125711 0.41711,-4.085818 1.25132,-5.881751 0.83281,-1.793078 2.01414,-3.330613 3.5426,-4.605468 1.52845,-1.274855 3.38023,-2.278465 5.55814,-3.012256 C 167.05562,24.366896 169.50926,24 172.24284,24 c 5.14104,0 9.21552,1.239165 12.22764,3.718923 3.00932,2.481185 4.76872,5.798949 5.2796,9.956148 l -8.33651,0.708094 c -0.51089,-2.12571 -1.52845,-3.778882 -3.05691,-4.959515 -1.52845,-1.180633 -3.65877,-1.771664 -6.39095,-1.771664 -2.54743,0 -4.53918,0.602452 -5.97385,1.807354 -1.43748,1.204902 -2.15551,2.752431 -2.15551,4.641158 0,1.086411 0.20995,1.994371 0.62706,2.726734 0.4171,0.733792 1.01756,1.370505 1.80559,1.912997 0.78662,0.543919 1.7482,1.027879 2.88194,1.451879 1.13515,0.425427 2.42006,0.876552 3.85613,1.347663 l 3.544,1.133522 c 2.2213,0.708094 4.22564,1.451879 6.00744,2.231353 1.7832,0.779475 3.30045,1.713132 4.55037,2.799543 1.25132,1.08641 2.2129,2.385535 2.88335,3.897373 0.67185,1.511839 1.00777,3.377724 1.00777,5.597657 0,2.362693 -0.4633,4.524094 -1.38849,6.482774 -0.92799,1.961536 -2.22269,3.626128 -3.89112,4.995206 -1.66702,1.370505 -3.64617,2.434074 -5.94025,3.187851 C 177.48746,76.620256 174.95263,77 172.17426,77 167.03322,77 162.74879,75.772256 159.32237,73.31534 155.89454,70.858424 153.78802,67.150923 153,62.18998 Z"
           id="Fill-9"
           fill="#FFFFFF"
           style="fill:#ffffff" />
        <path
           d="m 226.86078,32.616728 c -2.49895,0 -4.73345,0.470361 -6.70071,1.408241 -1.96866,0.939302 -3.63509,2.240967 -4.9993,3.906415 -1.36701,1.66687 -2.40941,3.639262 -3.12719,5.912912 -0.71638,2.277913 -1.07458,4.753349 -1.07458,7.42773 0,2.675802 0.36939,5.162607 1.11096,7.463256 0.73877,2.299229 1.79376,4.292936 3.15937,5.983963 1.36421,1.688185 3.03204,3.014007 5.0007,3.977466 1.96586,0.960618 4.20036,1.440926 6.70071,1.440926 2.50035,0 4.73345,-0.456151 6.70211,-1.371295 1.96586,-0.915144 3.63369,-2.194072 4.9993,-3.838206 1.36561,-1.641291 2.4192,-3.62505 3.15937,-5.947015 0.74017,-2.323387 1.11096,-4.869875 1.11096,-7.638044 0,-2.722695 -0.37079,-5.233658 -1.11096,-7.532886 -0.74017,-2.297808 -1.79376,-4.270199 -3.15937,-5.912911 -1.36561,-1.641291 -3.04463,-2.933009 -5.03568,-3.872311 -1.98964,-0.93788 -4.23534,-1.408241 -6.73569,-1.408241 M 226.93074,25 c 3.74982,0 7.17644,0.646569 10.27844,1.939708 3.1006,1.293138 5.73947,3.102111 7.91661,5.42976 2.17434,2.32907 3.86316,5.114292 5.06926,8.358506 1.2033,3.244214 1.80495,6.79395 1.80495,10.649208 0,3.998782 -0.63663,7.606781 -1.90849,10.826837 -1.27606,3.221478 -3.09081,6.0067 -5.45264,8.357085 l 6.66713,7.970565 V 81 h -8.47208 l -4.65371,-5.782176 c -1.62026,0.751725 -3.35805,1.338611 -5.20777,1.762079 -1.85253,0.423467 -3.84358,0.635201 -5.97174,0.635201 -3.84357,0 -7.30376,-0.647991 -10.38198,-1.939708 -3.07961,-1.293139 -5.6961,-3.103532 -7.84805,-5.431182 -2.15335,-2.327649 -3.81978,-5.100081 -4.9993,-8.32298 C 202.59046,58.701177 202,55.186967 202,51.377182 c 0,-3.855258 0.59046,-7.392204 1.77137,-10.615103 1.17952,-3.218636 2.85714,-5.99391 5.03428,-8.321559 2.17434,-2.32765 4.80202,-4.149412 7.88163,-5.466708 C 219.76689,25.659358 223.18091,25 226.93074,25"
           id="Fill-11"
           fill="#FFFFFF"
           style="fill:#ffffff" />
        <path
           d="m 286,69.702956 c 3.5527,0 6.32041,-1.120535 8.30452,-3.364462 1.98271,-2.243927 2.97546,-5.679761 2.97546,-10.30893 V 25 H 306 v 31.242252 c 0,3.684208 -0.46152,6.835982 -1.38455,9.458179 -0.92443,2.620769 -2.23787,4.770485 -3.94451,6.44772 -1.70663,1.677235 -3.80647,2.904829 -6.29671,3.684208 C 291.8826,76.611738 289.09119,77 286,77 c -3.1386,0 -5.94116,-0.388262 -8.4077,-1.167641 -2.46932,-0.779379 -4.55661,-2.006973 -6.26324,-3.684208 -1.70664,-1.677235 -3.02147,-3.826951 -3.9459,-6.44772 C 266.46012,63.078234 266,59.92646 266,56.242252 V 25 h 8.72002 v 31.029564 c 0,4.629169 0.99136,8.065003 2.97546,10.30893 1.98411,2.243927 4.75181,3.364462 8.30452,3.364462"
           id="Fill-13"
           fill="#FFFFFF"
           style="fill:#ffffff" />
        <path
           d="m 330.98202,54.203221 h 16.68559 l -2.74618,-7.938601 c -1.08088,-3.109215 -1.94757,-5.640364 -2.60433,-7.589236 -0.65817,-1.950275 -1.24542,-3.667639 -1.76033,-5.153496 h -2.18163 c -0.28227,0.788528 -0.56455,1.57846 -0.84541,2.366988 -0.28228,0.789932 -0.5986,1.672467 -0.95038,2.646201 -0.3532,0.975137 -0.73903,2.089179 -1.16174,3.343529 -0.4227,1.251543 -0.93903,2.714951 -1.54898,4.386014 z M 315,73.562858 332.95371,26 h 13.30677 L 364,73.562858 V 76 h -8.72933 L 350.20244,61.723706 H 328.30677 L 323.23854,76 H 315 Z"
           id="Fill-15"
           fill="#FFFFFF"
           style="fill:#ffffff" />
        <path
           d="m 383.64549,48.841308 h 7.60029 c 3.34777,0 5.98469,-0.610355 7.91356,-1.828259 1.92887,-1.219307 2.89541,-3.208924 2.89541,-5.971657 0,-2.80623 -0.97778,-4.760769 -2.93053,-5.86502 -1.95135,-1.102849 -4.57703,-1.655676 -7.87844,-1.655676 h -7.60029 z M 413,76 h -8.43758 l -15.2694,-19.637996 h -5.64753 V 76 H 375 V 26 h 16.24578 c 2.55543,0 4.98584,0.173986 7.28559,0.521959 2.30116,0.347972 4.38175,1.149151 6.24178,2.402132 3.94906,2.598569 5.9271,6.521679 5.9271,11.765119 0,2.275852 -0.33717,4.259857 -1.01291,5.95482 -0.67433,1.693559 -1.56922,3.131752 -2.68327,4.315981 -1.11687,1.184229 -2.40652,2.146766 -3.86898,2.887611 -1.46527,0.743651 -2.98813,1.300687 -4.5686,1.67111 L 413,73.561386 Z"
           id="Fill-17"
           fill="#FFFFFF"
           style="fill:#ffffff" />
        <polygon
           id="Fill-19"
           fill="#FFFFFF"
           points="456.5098,33.659389 432.59969,33.659389 432.59969,46.751487 454.83212,46.751487 454.83212,54.271972 432.59969,54.271972 432.59969,68.339208 457,68.339208 457,76 424,76 424,26 456.5098,26 "
           style="fill:#ffffff" />
        <path
           d="m 476.47617,61.410505 c 0.50807,2.551138 1.70195,4.548364 3.57746,5.987394 1.8755,1.441885 4.34165,2.161401 7.39845,2.161401 3.00921,0 5.3354,-0.708095 6.98136,-2.125711 1.64317,-1.416188 2.46615,-3.282074 2.46615,-5.597656 0,-1.133522 -0.21974,-2.09002 -0.66062,-2.869495 -0.43949,-0.779475 -1.05392,-1.440458 -1.84052,-1.984377 -0.78799,-0.541064 -1.76073,-1.00361 -2.91683,-1.380499 -1.15889,-0.378316 -2.45635,-0.779474 -3.89238,-1.204902 l -3.74961,-1.062141 c -2.22261,-0.613873 -4.21569,-1.357657 -5.97503,-2.232782 -1.76073,-0.873697 -3.26534,-1.901575 -4.51381,-3.082208 -1.25127,-1.180633 -2.20162,-2.53829 -2.84965,-4.074398 -0.64803,-1.53468 -0.97274,-3.319192 -0.97274,-5.349252 0,-2.125711 0.41709,-4.085818 1.25127,-5.881751 0.83278,-1.793078 2.01407,-3.330613 3.54247,-4.605468 1.52839,-1.274855 3.38011,-2.278465 5.55793,-3.012256 C 482.0551,24.366896 484.51006,24 487.24214,24 c 5.14084,0 9.21517,1.239165 12.22718,3.718923 3.00921,2.481185 4.76994,5.798949 5.27941,9.956148 l -8.33621,0.708094 c -0.50946,-2.12571 -1.5284,-3.778882 -3.05539,-4.959515 -1.5284,-1.180633 -3.66004,-1.771664 -6.39212,-1.771664 -2.54733,0 -4.53901,0.602452 -5.97363,1.807354 -1.43602,1.204902 -2.15403,2.752431 -2.15403,4.641158 0,1.086411 0.20854,1.994371 0.62563,2.726734 0.41709,0.733792 1.01754,1.370505 1.80553,1.912997 0.78659,0.543919 1.74814,1.027879 2.88324,1.451879 1.1351,0.425427 2.41996,0.876552 3.85458,1.347663 l 3.54387,1.133522 c 2.22262,0.708094 4.22549,1.451879 6.00862,2.231353 1.78173,0.779475 3.30033,1.713132 4.5488,2.799543 1.25128,1.08641 2.21282,2.385535 2.88464,3.897373 0.67043,1.511839 1.00774,3.377724 1.00774,5.597657 0,2.362693 -0.46328,4.524094 -1.38983,6.482774 -0.92796,1.961536 -2.22262,3.626128 -3.89098,4.995206 -1.66696,1.370505 -3.64604,2.434074 -5.93864,3.187851 C 492.48656,76.620256 489.95182,77 487.17355,77 482.03411,77 477.74843,75.772256 474.32214,73.31534 470.89444,70.858424 468.78799,67.150923 468,62.18998 Z"
           id="Fill-21"
           fill="#FFFFFF"
           style="fill:#ffffff" />
        <path
           d="m 527.86012,49.258783 h 8.50595 c 1.55951,0 2.98907,-0.126277 4.28867,-0.380233 1.29817,-0.252554 2.43353,-0.677686 3.40181,-1.276799 0.9697,-0.59771 1.72518,-1.403076 2.26929,-2.416096 0.54269,-1.011618 0.81404,-2.254742 0.81404,-3.727972 0,-1.518128 -0.27135,-2.793523 -0.81404,-3.828993 -0.54411,-1.03547 -1.2896,-1.85206 -2.23359,-2.451173 -0.94542,-0.599113 -2.06793,-1.024245 -3.3661,-1.276799 -1.30103,-0.252553 -2.70631,-0.380233 -4.21727,-0.380233 h -8.64876 z M 519,26 h 18.57141 c 3.44893,0 6.34375,0.394264 8.68303,1.184196 2.33928,0.788528 4.22869,1.878718 5.6711,3.273375 1.43956,1.391851 2.48067,3.027837 3.11761,4.909361 0.63695,1.878719 0.95685,3.910372 0.95685,6.092154 0,2.601302 -0.43701,4.86306 -1.31102,6.789483 -0.87402,1.926423 -2.13792,3.516107 -3.79169,4.770457 -1.6552,1.252946 -3.66315,2.193007 -6.02528,2.820181 -2.36356,0.627175 -5.03273,0.940061 -8.00896,0.940061 h -9.00293 V 76 H 519 Z"
           id="Fill-23"
           fill="#FFFFFF"
           style="fill:#ffffff" />
        <path
           d="m 573.98202,54.203221 h 16.68559 l -2.74618,-7.938601 c -1.08088,-3.109215 -1.94899,-5.640364 -2.60575,-7.589236 -0.65675,-1.950275 -1.244,-3.667639 -1.75891,-5.153496 h -2.18304 c -0.28086,0.788528 -0.56314,1.57846 -0.84542,2.366988 -0.28086,0.789932 -0.5986,1.672467 -0.95038,2.646201 -0.35178,0.975137 -0.73761,2.089179 -1.16032,3.343529 -0.4227,1.251543 -0.93903,2.714951 -1.54898,4.386014 z M 558,73.562858 575.95371,26 h 13.30535 L 607,73.562858 V 76 h -8.72933 L 593.20244,61.723706 H 571.30677 L 566.23712,76 H 558 Z"
           id="Fill-25"
           fill="#FFFFFF"
           style="fill:#ffffff" />
        <path
           d="m 660,62.780262 c -0.79433,1.952142 -1.83601,3.789122 -3.1208,5.512343 -1.28761,1.723222 -2.84236,3.232972 -4.66566,4.522228 -1.82329,1.289256 -3.94057,2.308864 -6.34902,3.058823 C 643.45608,76.623616 640.77909,77 637.83213,77 c -3.74128,0 -7.14335,-0.65165 -10.2062,-1.953546 -3.06285,-1.299087 -5.67766,-3.100956 -7.84299,-5.399989 -2.16534,-2.301842 -3.8374,-5.041863 -5.01618,-8.22568 C 613.58798,58.238373 613,54.787717 613,51.068816 c 0,-3.716091 0.58798,-7.166747 1.76676,-10.350564 1.17878,-3.182412 2.86073,-5.936477 5.0501,-8.26079 2.18936,-2.321504 4.81689,-4.147248 7.87974,-5.47021 C 630.75945,25.661481 634.18413,25 637.97348,25 c 5.51652,0 10.13695,1.279425 13.8542,3.834063 3.71868,2.554637 6.34903,5.947712 7.89247,10.176416 l -8.9087,1.741479 c -1.21695,-2.554637 -2.91304,-4.565764 -5.08685,-6.029169 -2.17524,-1.463404 -4.80559,-2.195106 -7.89247,-2.195106 -2.4777,0 -4.68826,0.474694 -6.62887,1.424081 -1.94061,0.949386 -3.57733,2.2569 -4.91017,3.923945 -1.33285,1.66564 -2.3505,3.633231 -3.05155,5.902771 -0.70105,2.268136 -1.05157,4.69778 -1.05157,7.290336 0,2.638903 0.36183,5.081187 1.08691,7.326852 0.72366,2.24707 1.77665,4.18938 3.15613,5.833954 1.37949,1.64317 3.05155,2.926809 5.01618,3.85232 1.96322,0.926917 4.20913,1.390375 6.73347,1.390375 3.27486,0 5.97447,-0.790688 8.10306,-2.370659 2.12859,-1.579971 3.77662,-3.508237 4.94551,-5.786204 z"
           id="Fill-27"
           fill="#FFFFFF"
           style="fill:#ffffff" />
        <g
           id="Group-31"
           transform="translate(671,25)"
           style="fill:#ffffff">
          <mask
             id="mask-2"
             fill="#ffffff">
            <use
               xlink:href="#path-1"
               id="use24"
               x="0"
               y="0"
               width="100%"
               height="100%" />
          </mask>
          <g
             id="Clip-30"
             style="fill:#ffffff" />
          <polygon
             id="Fill-29"
             fill="#FFFFFF"
             mask="url(#mask-2)"
             points="33.136258,8.1299667 9.0897583,8.1299667 9.0897583,21.348883 31.449008,21.348883 31.449008,28.942217 9.0897583,28.942217 9.0897583,43.145717 33.629258,43.145717 33.629258,50.880717 0.44100833,50.880717 0.44100833,0.39638333 33.136258,0.39638333 "
             style="fill:#ffffff" />
        </g>
      </g>
    </g>
  </g>
  <metadata
     id="metadata1067">
    <rdf:RDF>
      <cc:Work
         rdf:about="">
        <dc:title>squarespace-logo-horizontal-white</dc:title>
      </cc:Work>
    </rdf:RDF>
  </metadata>
</svg>
