<?xml version="1.0" encoding="UTF-8" standalone="no"?>
<svg
   xmlns:dc="http://purl.org/dc/elements/1.1/"
   xmlns:cc="http://creativecommons.org/ns#"
   xmlns:rdf="http://www.w3.org/1999/02/22-rdf-syntax-ns#"
   xmlns:svg="http://www.w3.org/2000/svg"
   xmlns="http://www.w3.org/2000/svg"
   xmlns:sodipodi="http://sodipodi.sourceforge.net/DTD/sodipodi-0.dtd"
   xmlns:inkscape="http://www.inkscape.org/namespaces/inkscape"
   fill="none"
   viewBox="0 0 262 33"
   version="1.1"
   id="svg13"
   sodipodi:docname="tailwindcss-logotype.svg"
   inkscape:version="1.0.2 (1.0.2+r75+1)">
  <metadata
     id="metadata17">
    <rdf:RDF>
      <cc:Work
         rdf:about="">
        <dc:format>image/svg+xml</dc:format>
        <dc:type
           rdf:resource="http://purl.org/dc/dcmitype/StillImage" />
        <dc:title></dc:title>
      </cc:Work>
    </rdf:RDF>
  </metadata>
  <sodipodi:namedview
     pagecolor="#ffffff"
     bordercolor="#666666"
     borderopacity="1"
     objecttolerance="10"
     gridtolerance="10"
     guidetolerance="10"
     inkscape:pageopacity="0"
     inkscape:pageshadow="2"
     inkscape:window-width="1920"
     inkscape:window-height="1010"
     id="namedview15"
     showgrid="false"
     inkscape:zoom="3.9241727"
     inkscape:cx="112.17837"
     inkscape:cy="17.960573"
     inkscape:window-x="1440"
     inkscape:window-y="0"
     inkscape:window-maximized="1"
     inkscape:current-layer="svg13" />
  <path
     fill="#06b6d4"
     d="M 27,0 C 19.8,0 15.3,3.6 13.5,10.8 16.2,7.2 19.35,5.85 22.95,6.75 25.004,7.263 26.472,8.754 28.097,10.403 30.744,13.09 33.808,16.2 40.5,16.2 47.7,16.2 52.2,12.6 54,5.4 51.3,9 48.15,10.35 44.55,9.45 42.496,8.937 41.028,7.446 39.403,5.797 36.756,3.11 33.692,0 27,0 Z M 13.5,16.2 C 6.3,16.2 1.8,19.8 0,27 c 2.7,-3.6 5.85,-4.95 9.45,-4.05 2.054,0.514 3.522,2.004 5.147,3.653 2.647,2.687 5.711,5.797 12.403,5.797 7.2,0 11.7,-3.6 13.5,-10.8 -2.7,3.6 -5.85,4.95 -9.45,4.05 C 28.996,25.137 27.528,23.646 25.903,21.997 23.256,19.31 20.192,16.2 13.5,16.2 Z"
     id="path2"
     style="clip-rule:evenodd;fill-rule:evenodd" />
  <path
     fill="#000000"
     d="m 80.996,13.652 h -4.712 v 9.12 c 0,2.432 1.596,2.394 4.712,2.242 V 28.7 C 74.688,29.46 72.18,27.712 72.18,22.772 v -9.12 H 68.684 V 9.7 H 72.18 V 4.596 L 76.284,3.38 V 9.7 h 4.712 z M 98.958,9.7 h 4.104 v 19 h -4.104 v -2.736 c -1.444,2.014 -3.686,3.23 -6.65,3.23 -5.168,0 -9.462,-4.37 -9.462,-9.994 0,-5.662 4.294,-9.994 9.462,-9.994 2.964,0 5.206,1.216 6.65,3.192 z m -6.004,15.58 c 3.42,0 6.004,-2.546 6.004,-6.08 0,-3.534 -2.584,-6.08 -6.004,-6.08 -3.42,0 -6.004,2.546 -6.004,6.08 0,3.534 2.584,6.08 6.004,6.08 z M 109.902,6.85 c -1.444,0 -2.622,-1.216 -2.622,-2.622 a 2.627,2.627 0 0 1 2.622,-2.622 2.627,2.627 0 0 1 2.622,2.622 c 0,1.406 -1.178,2.622 -2.622,2.622 z M 107.85,28.7 v -19 h 4.104 v 19 z m 8.854,0 V 0.96 h 4.104 V 28.7 Z m 30.742,-19 h 4.332 l -5.966,19 h -4.028 l -3.952,-12.806 -3.99,12.806 h -4.028 l -5.966,-19 h 4.332 l 3.686,13.11 3.99,-13.11 h 3.914 l 3.952,13.11 z m 9.424,-2.85 c -1.444,0 -2.622,-1.216 -2.622,-2.622 a 2.627,2.627 0 0 1 2.622,-2.622 2.627,2.627 0 0 1 2.622,2.622 c 0,1.406 -1.178,2.622 -2.622,2.622 z m -2.052,21.85 v -19 h 4.104 v 19 z M 173.666,9.206 c 4.256,0 7.296,2.888 7.296,7.828 V 28.7 h -4.104 V 17.452 c 0,-2.888 -1.672,-4.408 -4.256,-4.408 -2.698,0 -4.826,1.596 -4.826,5.472 V 28.7 h -4.104 v -19 h 4.104 v 2.432 c 1.254,-1.976 3.306,-2.926 5.89,-2.926 z M 200.418,2.1 h 4.104 v 26.6 h -4.104 v -2.736 c -1.444,2.014 -3.686,3.23 -6.65,3.23 -5.168,0 -9.462,-4.37 -9.462,-9.994 0,-5.662 4.294,-9.994 9.462,-9.994 2.964,0 5.206,1.216 6.65,3.192 z m -6.004,23.18 c 3.42,0 6.004,-2.546 6.004,-6.08 0,-3.534 -2.584,-6.08 -6.004,-6.08 -3.42,0 -6.004,2.546 -6.004,6.08 0,3.534 2.584,6.08 6.004,6.08 z m 23.864,3.914 c -5.738,0 -10.032,-4.37 -10.032,-9.994 0,-5.662 4.294,-9.994 10.032,-9.994 3.724,0 6.954,1.938 8.474,4.902 l -3.534,2.052 c -0.836,-1.786 -2.698,-2.926 -4.978,-2.926 -3.344,0 -5.89,2.546 -5.89,5.966 0,3.42 2.546,5.966 5.89,5.966 2.28,0 4.142,-1.178 5.054,-2.926 l 3.534,2.014 c -1.596,3.002 -4.826,4.94 -8.55,4.94 z m 15.314,-14.25 c 0,3.458 10.222,1.368 10.222,8.398 0,3.8 -3.306,5.852 -7.41,5.852 -3.8,0 -6.536,-1.71 -7.752,-4.446 l 3.534,-2.052 c 0.608,1.71 2.128,2.736 4.218,2.736 1.824,0 3.23,-0.608 3.23,-2.128 0,-3.382 -10.222,-1.482 -10.222,-8.284 0,-3.572 3.078,-5.814 6.954,-5.814 3.116,0 5.7,1.444 7.03,3.952 l -3.458,1.938 c -0.684,-1.482 -2.014,-2.166 -3.572,-2.166 -1.482,0 -2.774,0.646 -2.774,2.014 z m 17.518,0 c 0,3.458 10.222,1.368 10.222,8.398 0,3.8 -3.306,5.852 -7.41,5.852 -3.8,0 -6.536,-1.71 -7.752,-4.446 l 3.534,-2.052 c 0.608,1.71 2.128,2.736 4.218,2.736 1.824,0 3.23,-0.608 3.23,-2.128 0,-3.382 -10.222,-1.482 -10.222,-8.284 0,-3.572 3.078,-5.814 6.954,-5.814 3.116,0 5.7,1.444 7.03,3.952 l -3.458,1.938 c -0.684,-1.482 -2.014,-2.166 -3.572,-2.166 -1.482,0 -2.774,0.646 -2.774,2.014 z"
     id="path4"
     style="clip-rule:evenodd;fill-rule:evenodd;fill:#ffffff" />
  <defs
     id="defs11">
    <clipPath
       id="prefix__clip0">
      <path
         fill="#fff"
         d="M0 0h262v32.4H0z"
         id="path8" />
    </clipPath>
  </defs>
</svg>
